<svg xmlns="http://www.w3.org/2000/svg" version="1.1" width="1000.000000" height="1000.000000">
<defs>
<pattern id="pattern7" x="0.000000" y="0.000000" width="0.100000" height="0.100000">
<rect x="0.000000" y="0.000000" width="20.000000" height="20.000000" fill="#ffffff" fill-opacity="1.000000" />
<rect x="0.000000" y="20.000000" width="20.000000" height="20.000000" fill="#d8d8d8" fill-opacity="1.000000" />
<rect x="0.000000" y="40.000000" width="20.000000" height="20.000000" fill="#ffffff" fill-opacity="1.000000" />
<rect x="0.000000" y="60.000000" width="20.000000" height="20.000000" fill="#d8d8d8" fill-opacity="1.000000" />
<rect x="0.000000" y="80.000000" width="20.000000" height="20.000000" fill="#ffffff" fill-opacity="1.000000" />
<rect x="20.000000" y="0.000000" width="20.000000" height="20.000000" fill="#d8d8d8" fill-opacity="1.000000" />
<rect x="20.000000" y="20.000000" width="20.000000" height="20.000000" fill="#d8d8d8" fill-opacity="1.000000" />
<rect x="20.000000" y="40.000000" width="20.000000" height="20.000000" fill="#d8d8d8" fill-opacity="1.000000" />
<rect x="20.000000" y="60.000000" width="20.000000" height="20.000000" fill="#d8d8d8" fill-opacity="1.000000" />
<rect x="20.000000" y="80.000000" width="20.000000" height="20.000000" fill="#d8d8d8" fill-opacity="1.000000" />
<rect x="40.000000" y="0.000000" width="20.000000" height="20.000000" fill="#ffffff" fill-opacity="1.000000" />
<rect x="40.000000" y="20.000000" width="20.000000" height="20.000000" fill="#d8d8d8" fill-opacity="1.000000" />
<rect x="40.000000" y="40.000000" width="20.000000" height="20.000000" fill="#ffffff" fill-opacity="1.000000" />
<rect x="40.000000" y="60.000000" width="20.000000" height="20.000000" fill="#d8d8d8" fill-opacity="1.000000" />
<rect x="40.000000" y="80.000000" width="20.000000" height="20.000000" fill="#ffffff" fill-opacity="1.000000" />
<rect x="60.000000" y="0.000000" width="20.000000" height="20.000000" fill="#d8d8d8" fill-opacity="1.000000" />
<rect x="60.000000" y="20.000000" width="20.000000" height="20.000000" fill="#d8d8d8" fill-opacity="1.000000" />
<rect x="60.000000" y="40.000000" width="20.000000" height="20.000000" fill="#d8d8d8" fill-opacity="1.000000" />
<rect x="60.000000" y="60.000000" width="20.000000" height="20.000000" fill="#d8d8d8" fill-opacity="1.000000" />
<rect x="60.000000" y="80.000000" width="20.000000" height="20.000000" fill="#d8d8d8" fill-opacity="1.000000" />
<rect x="80.000000" y="0.000000" width="20.000000" height="20.000000" fill="#ffffff" fill-opacity="1.000000" />
<rect x="80.000000" y="20.000000" width="20.000000" height="20.000000" fill="#d8d8d8" fill-opacity="1.000000" />
<rect x="80.000000" y="40.000000" width="20.000000" height="20.000000" fill="#ffffff" fill-opacity="1.000000" />
<rect x="80.000000" y="60.000000" width="20.000000" height="20.000000" fill="#d8d8d8" fill-opacity="1.000000" />
<rect x="80.000000" y="80.000000" width="20.000000" height="20.000000" fill="#ffffff" fill-opacity="1.000000" />
<circle cx="20.000000" cy="20.000000" r="20.000000" fill="#00e4b2" fill-opacity="0.500000" />
<circle cx="80.000000" cy="80.000000" r="20.000000" fill="#00e4b2" fill-opacity="0.500000" />
<circle cx="80.000000" cy="20.000000" r="20.000000" fill="#00a3e4" fill-opacity="0.500000" />
<circle cx="20.000000" cy="80.000000" r="20.000000" fill="#00a3e4" fill-opacity="0.500000" />
</pattern>
</defs>
<rect x="0.000000" y="0.000000" width="1000.000000" height="1000.000000" fill="url(#pattern7)" fill-opacity="1.000000" />
</svg>
