<svg id="レイヤー_1" data-name="レイヤー 1" xmlns="http://www.w3.org/2000/svg" viewBox="0 0 1000.31 655.05"><defs><style>.cls-1{font-size:60px;font-family:KozGoPr6N-Regular-90ms-RKSJ-H, Kozuka Gothic Pr6N;}.cls-2{letter-spacing:0.25em;}.cls-3{stroke:#000;stroke-miterlimit:10;}.cls-4{letter-spacing:-0.5em;}</style></defs><text class="cls-1" transform="translate(140.34 275.8)">&lt;p<tspan class="cls-2" x="77.1" y="0">&gt;</tspan><tspan x="132.54" y="0">ここは段落で</tspan><tspan class="cls-2" x="492.54" y="0">す</tspan><tspan x="567.54" y="0">&lt;/p&gt;</tspan></text><polygon points="200.34 223.12 150.34 173.12 250.34 173.12 200.34 223.12"/><rect x="181.84" y="73.12" width="37.5" height="100"/><text class="cls-1" transform="translate(0 52.8)">ここが開始タグ</text><polygon points="775.31 223.58 725.31 173.58 825.31 173.58 775.31 223.58"/><rect x="756.81" y="73.58" width="37.5" height="100"/><text class="cls-1" transform="translate(574.97 52.8)">ここが終了タグ</text><polygon points="500.48 297.83 550.48 347.83 450.48 347.83 500.48 297.83"/><rect x="481.48" y="599.71" width="37.5" height="100" transform="translate(1000.46 1047.55) rotate(180)"/><line class="cls-3" x1="137.84" y1="223.12" x2="262.84" y2="223.12"/><line class="cls-3" x1="712.34" y1="223.62" x2="837.34" y2="223.62"/><line class="cls-3" x1="275.34" y1="285.62" x2="700.34" y2="285.62"/><text class="cls-1" transform="translate(262.97 500.71)">ここがコンテンツ</text><text class="cls-1" transform="translate(87.97 634.71)">こ<tspan class="cls-2" x="60" y="0">の3</tspan><tspan x="183.06" y="0">つをあわせて要素という</tspan><tspan class="cls-4" x="843.06" y="0">。</tspan></text></svg>