<svg xmlns="http://www.w3.org/2000/svg" version="1.1" width="1000.000000" height="1000.000000">
<rect x="0.000000" y="0.000000" width="1000.000000" height="1000.000000" fill="#000000" fill-opacity="1.000000" />
<defs>
<pattern id="hypocycloid_pattern2" x="0.000000" y="0.000000" width="100.000000" height="100.000000"  patternUnits="userSpaceOnUse" patternContentUnit="userSpaceOnUse" >
<radialGradient id="hypocycloid_pattern1_gradient2">
<stop offset="0%" stop-color="#8bff95" />
<stop offset="50%" stop-color="#38b142" />
<stop offset="100%" stop-color="#177e1f" />
</radialGradient>
<polygon points="90.000000 50.000000 89.994000 50.000040 89.976006 50.000320 89.946028 50.001080 89.904090 50.002558 89.850219 50.004994 89.784453 50.008624 89.706839 50.013686 89.617431 50.020415 89.516291 50.029042 89.403490 50.039800 89.279106 50.052919 89.143227 50.068624 88.995947 50.087140 88.837369 50.108689 88.667603 50.133489 88.486768 50.161754 88.294988 50.193698 88.092398 50.229527 87.879137 50.269446 87.655353 50.313655 87.421203 50.362349 87.176846 50.415720 86.922452 50.473954 86.658197 50.537232 86.384261 50.605731 86.100835 50.679622 85.808111 50.759071 85.506291 50.844238 85.195582 50.935277 84.876194 51.032337 84.548347 51.135560 84.212262 51.245081 83.868169 51.361031 83.516299 51.483533 83.156892 51.612702 82.790188 51.748649 82.416436 51.891476 82.035884 52.041279 81.648789 52.198146 81.255407 52.362159 80.856002 52.533392 80.450837 52.711910 80.040181 52.897773 79.624304 53.091033 79.203480 53.291732 78.777983 53.499908 78.348092 53.715588 77.914085 53.938792 77.476243 54.169533 77.034849 54.407816 76.590185 54.653638 76.142537 54.906987 75.692187 55.167844 75.239422 55.436182 74.784527 55.711967 74.327786 55.995154 73.869484 56.285693 73.409905 56.583526 72.949332 56.888586 72.488048 57.200798 72.026331 57.520080 71.564463 57.846342 71.102720 58.179487 70.641376 58.519409 70.180706 58.865995 69.720978 59.219126 69.262461 59.578674 68.805420 59.944504 68.350115 60.316475 67.896805 60.694437 67.445743 61.078235 66.997180 61.467706 66.551363 61.862680 66.108534 62.262983 65.668930 62.668431 65.232784 63.078836 64.800324 63.494004 64.371773 63.913735 63.947349 64.337821 63.527264 64.766051 63.111725 65.198208 62.700933 65.634069 62.295083 66.073406 61.894364 66.515987 61.498959 66.961575 61.109044 67.409928 60.724788 67.860800 60.346355 68.313940 59.973902 68.769096 59.607578 69.226008 59.247524 69.684417 58.893878 70.144058 58.546765 70.604664 58.206309 71.065963 57.872620 71.527685 57.545806 71.989554 57.225965 72.451292 56.913187 72.912621 56.607555 73.373261 56.309144 73.832929 56.018022 74.291343 55.734247 74.748219 55.457871 75.203272 55.188939 75.656217 54.927485 76.106769 54.673537 76.554644 54.427116 76.999555 54.188232 77.441220 53.956890 77.879355 53.733086 78.313678 53.516808 78.743907 53.308036 79.169764 53.106742 79.590971 52.912892 80.007252 52.726441 80.418333 52.547340 80.823945 52.375530 81.223819 52.210944 81.617690 52.053511 82.005295 51.903148 82.386377 51.759769 82.760680 51.623278 83.127954 51.493573 83.487952 51.370545 83.840430 51.254077 84.185152 51.144049 84.521882 51.040329 84.850394 50.942784 85.170463 50.851271 85.481872 50.765642 85.784407 50.685743 86.077862 50.611416 86.362037 50.542493 86.636735 50.478806 86.901768 50.420177 87.156953 50.366426 87.402116 50.317366 87.637085 50.272807 87.861700 50.232554 88.075804 50.196406 88.279250 50.164161 88.471895 50.135610 88.653607 50.110542 88.824259 50.088742 88.983732 50.069992 89.131916 50.054072 89.268706 50.040756 89.394008 50.029818 89.507735 50.021029 89.609806 50.014158 89.700151 50.008972 89.778706 50.005236 89.845417 50.002714 89.900236 50.001168 89.943127 50.000360 89.974057 50.000050 89.993007 50.000000 89.999962 49.999969 89.994918 49.999717 89.977878 49.999004 89.948854 49.997592 89.907867 49.995241 89.854945 49.991714 89.790125 49.986775 89.713453 49.980188 89.624982 49.971720 89.524773 49.961140 89.412898 49.948218 89.289434 49.932727 89.154467 49.914443 89.008091 49.893143 88.850409 49.868610 88.681530 49.840628 88.501571 49.808985 88.310658 49.773473 88.108923 49.733887 87.896507 49.690027 87.673556 49.641697 87.440225 49.588706 87.196675 49.530866 86.943074 49.467996 86.679597 49.399919 86.406426 49.326463 86.123748 49.247463 85.831758 49.162757 85.530655 49.072191 85.220645 48.975616 84.901941 48.872889 84.574759 48.763874 84.239322 48.648441 83.895858 48.526465 83.544599 48.397831 83.185783 48.262428 82.819652 48.120152 82.446451 47.970908 82.066432 47.814606 81.679848 47.651165 81.286958 47.480510 80.888022 47.302574 80.483306 47.117298 80.073078 46.924629 79.657607 46.724523 79.237166 46.516944 78.812031 46.301863 78.382480 46.079259 77.948790 45.849118 77.511244 45.611435 77.070122 45.366214 76.625708 45.113463 76.178287 44.853203 75.728142 44.585460 75.275559 44.310267 74.820823 44.027667 74.364218 43.737711 73.906030 43.440457 73.446543 43.135970 72.986039 42.824325 72.524800 42.505602 72.063108 42.179893 71.601242 41.847292 71.139478 41.507906 70.678093 41.161846 70.217359 40.809232 69.757547 40.450190 69.298924 40.084855 68.841755 39.713368 68.386302 39.335877 67.932824 38.952538 67.481574 38.563513 67.032803 38.168970 66.586759 37.769086 66.143683 37.364040 65.703813 36.954023 65.267383 36.539226 64.834621 36.119852 64.405751 35.696105 63.980991 35.268197 63.560553 34.836345 63.144644 34.400771 62.733467 33.961702 62.327217 33.519370 61.926082 33.074013 61.530247 32.625871 61.139888 32.175191 60.755176 31.722222 60.376274 31.267217 60.003339 30.810435 59.636521 30.352136 59.275963 29.892583 58.921802 29.432045 58.574165 28.970790 58.233173 28.509092 57.898942 28.047225 57.571577 27.585466 57.251177 27.124094 56.937834 26.663389 56.631630 26.203633 56.332641 25.745109 56.040936 25.288100 55.756574 24.832892 55.479608 24.379768 55.210081 23.929015 54.948030 23.480917 54.693484 23.035759 54.446463 22.593825 54.206978 22.155399 53.975036 21.720762 53.750632 21.290197 53.533755 20.863981 53.324386 20.442394 53.122498 20.025711 52.928057 19.614205 52.741019 19.208148 52.561334 18.807808 52.388946 18.413449 52.223788 18.025335 52.065788 17.643724 51.914865 17.268872 51.770933 16.901029 51.633897 16.540443 51.503655 16.187357 51.380100 15.842010 51.263114 15.504634 51.152578 15.175460 51.048361 14.854710 50.950329 14.542604 50.858341 14.239354 50.772249 13.945169 50.691900 13.660248 50.617134 13.384789 50.547788 13.118979 50.483690 12.863003 50.424664 12.617036 50.370532 12.381249 50.321105 12.155804 50.276195 11.940857 50.235606 11.736557 50.199139 11.543047 50.166590 11.360460 50.137753 11.188922 50.112415 11.028555 50.090363 10.879469 50.071379 10.741767 50.055241 10.615547 50.041726 10.500896 50.030607 10.397893 50.021655 10.306612 50.014640 10.227116 50.009329 10.159460 50.005486 10.103692 50.002876 10.059851 50.001261 10.027967 50.000403 10.008063 50.000062 10.000152 50.000000 10.004241 49.999976 10.020326 49.999751 10.048396 49.999083 10.088431 49.997735 10.140404 49.995468 10.204278 49.992044 10.280009 49.987225 10.367542 49.980778 10.466818 49.972469 10.577767 49.962065 10.700312 49.949338 10.834366 49.934060 10.979837 49.916006 11.136623 49.894955 11.304615 49.870688 11.483695 49.842988 11.673741 49.811644 11.874619 49.776448 12.086190 49.737193 12.308307 49.693681 12.540818 49.645714 12.783560 49.593101 13.036367 49.535654 13.299064 49.473191 13.571470 49.405535 13.853398 49.332514 14.144654 49.253961 14.445039 49.169715 14.754346 49.079621 15.072366 48.983530 15.398881 48.881298 15.733669 48.772789 16.076502 48.657871 16.427149 48.536421 16.785372 48.408321 17.150930 48.273461 17.523577 48.131736 17.903062 47.983050 18.289133 47.827313 18.681531 47.664444 19.079994 47.494366 19.484259 47.317012 19.894059 47.132322 20.309122 46.940244 20.729177 46.740732 21.153948 46.533749 21.583159 46.319266 22.016529 46.097261 22.453779 45.867721 22.894626 45.630639 23.338788 45.386017 23.785980 45.133866 24.235919 44.874203 24.688318 44.607054 25.142893 44.332453 25.599359 44.050442 26.057432 43.761069 26.516826 43.464394 26.977260 43.160480 27.438450 42.849402 27.900116 42.531240 28.361978 42.206084 28.823760 41.874028 29.285186 41.535178 29.745982 41.189646 30.205877 40.837549 30.664605 40.479014 31.121899 40.114175 31.577498 39.743172 32.031143 39.366154 32.482579 38.983275 32.931557 38.594697 33.377827 38.200587 33.821148 37.801121 34.261282 37.396480 34.697994 36.986851 35.131056 36.572428 35.560245 36.153411 35.985340 35.730004 36.406130 35.302420 36.822406 34.870874 37.233968 34.435588 37.640617 33.996789 38.042166 33.554708 38.438430 33.109583 38.829231 32.661654 39.214399 32.211167 39.593770 31.758371 39.967186 31.303519 40.334496 30.846869 40.695557 30.388681 41.050233 29.929218 41.398394 29.468748 41.739919 29.007541 42.074692 28.545868 42.402608 28.084005 42.723566 27.622227 43.037474 27.160814 43.344250 26.700045 43.643816 26.240203 43.936103 25.781570 44.221052 25.324431 44.498609 24.869068 44.768729 24.415769 45.031377 23.964816 45.286521 23.516496 45.534142 23.071094 45.774227 22.628893 46.006770 22.190177 46.231774 21.755228 46.449250 21.324328 46.659216 20.897756 46.861698 20.475790 47.056731 20.058706 47.244357 19.646779 47.424625 19.240278 47.597592 18.839472 47.763324 18.444628 47.921891 18.056007 48.073374 17.673869 48.217859 17.298469 48.355441 16.930059 48.486220 16.568886 48.610304 16.215194 48.727808 15.869221 48.838853 15.531203 48.943569 15.201367 49.042088 14.879938 49.134552 14.567136 49.221108 14.263174 49.301909 13.968259 49.377113 13.682593 49.446885 13.406373 49.511394 13.139788 49.570817 12.883022 49.625333 12.636252 49.675127 12.399648 49.720390 12.173374 49.761316 11.957585 49.798103 11.752433 49.830957 11.558058 49.860082 11.374596 49.885690 11.202175 49.907996 11.040913 49.927217 10.890925 49.943573 10.752313 49.957289 10.625175 49.968590 10.509600 49.977706 10.405667 49.984867 10.313450 49.990305 10.233013 49.994256 10.164413 49.996956 10.107697 49.998642 10.062904 49.999551 10.030067 49.999924 10.009208 49.999999 10.000342 50.000018 10.003476 50.000218 10.018606 50.000842 10.045722 50.002127 10.084805 50.004312 10.135829 50.007636 10.198757 50.012334 10.273545 50.018643 10.360141 50.026796 10.458484 50.037024 10.568506 50.049558 10.690130 50.064625 10.823271 50.082449 10.967837 50.103254 11.123725 50.127257 11.290829 50.154675 11.469031 50.185721 11.658208 50.220604 11.858228 50.259527 12.068953 50.302693 12.290237 50.350298 12.521925 50.402535 12.763859 50.459590 13.015871 50.521647 13.277786 50.588883 13.549426 50.661471 13.830603 50.739577 14.121123 50.823364 14.420788 50.912986 14.729393 51.008595 15.046727 51.110332 15.372574 51.218337 15.706711 51.332740 16.048912 51.453665 16.398945 51.581231 16.756574 51.715550 17.121557 51.856724 17.493648 52.004852 17.872598 52.160024 18.258154 52.322323 18.650057 52.491825 19.048047 52.668597 19.451860 52.852700 19.861229 53.044189 20.275883 53.243107 20.695551 53.449494 21.119956 53.663379 21.548823 53.884784 21.981873 54.113724 22.418824 54.350205 22.859395 54.594227 23.303303 54.845779 23.750265 55.104845 24.199995 55.371398 24.652209 55.645407 25.106621 55.926831 25.562947 56.215619 26.020902 56.511715 26.480202 56.815055 26.940563 57.125565 27.401703 57.443166 27.863341 57.767769 28.325198 58.099279 28.786997 58.437592 29.248461 58.782597 29.709317 59.134175 30.169294 59.492202 30.628124 59.856544 31.085542 60.227061 31.541285 60.603606 31.995095 60.986024 32.446717 61.374155 32.895899 61.767830 33.342394 62.166876 33.785959 62.571112 34.226355 62.980351 34.663348 63.394399 35.096710 63.813058 35.526214 64.236123 35.951644 64.663382 36.372784 65.094621 36.789427 65.529618 37.201371 65.968145 37.608419 66.409973 38.010381 66.854864 38.407072 67.302579 38.798315 67.752871 39.183937 68.205493 39.563776 68.660190 39.937671 69.116707 40.305473 69.574782 40.667037 70.034153 41.022226 70.494553 41.370911 70.955711 41.712968 71.417357 42.048283 71.879215 42.376749 72.341010 42.698264 72.802463 43.012737 73.263293 43.320084 73.723219 43.620226 74.181958 43.913096 74.639227 44.198631 75.094742 44.476778 75.548216 44.747492 75.999366 45.010736 76.447906 45.266479 76.893551 45.514700 77.336018 45.755385 77.775022 45.988528 78.210281 46.214132 78.641513 46.432207 79.068440 46.642770 79.490783 46.845847 79.908265 47.041472 80.320614 47.229686 80.727557 47.410538 81.128826 47.584085 81.524154 47.750390 81.913280 47.909525 82.295944 48.061569 82.671890 48.206608 83.040866 48.344735 83.402624 48.476052 83.756920 48.600665 84.103516 48.718689 84.442177 48.830244 84.772673 48.935459 85.094779 49.034466 85.408276 49.127408 85.712950 49.214428 86.008593 49.295682 86.295002 49.371325 86.571981 49.441524 86.839340 49.506446 87.096895 49.566267 87.344467 49.621167 87.581887 49.671330 87.808990 49.716947 88.025619 49.758211 88.231624 49.795321 88.426862 49.828480 88.611197 49.857894 88.784502 49.883775 88.946657 49.906336 89.097547 49.925794 89.237068 49.942370 89.365123 49.956288 89.481622 49.967773 89.586485 49.977055 89.679637 49.984362 89.761014 49.989930 89.830559 49.993991 89.888223 49.996781 89.933967 49.998539 89.967757 49.999502 89.989570 49.999908 89.999391 49.999999" fill="url(#hypocycloid_pattern1_gradient2)" fill-opacity="1.000000"/>
</pattern>
</defs>
<rect x="0.000000" y="0.000000" width="1000.000000" height="1000.000000" fill="url(#hypocycloid_pattern2)" fill-opacity="1.000000" />
</svg>
