<svg xmlns="http://www.w3.org/2000/svg" version="1.1" width="1000.000000" height="1000.000000">
<rect x="0.000000" y="0.000000" width="1000.000000" height="1000.000000" fill="#000000" fill-opacity="1.000000" />
<defs>
<pattern id="hypocycloid_pattern3" x="0.000000" y="0.000000" width="100.000000" height="100.000000"  patternUnits="userSpaceOnUse" patternContentUnit="userSpaceOnUse" >
<radialGradient id="hypocycloid_pattern3_gradient3">
<stop offset="0%" stop-color="#8bff95" />
<stop offset="50%" stop-color="#38b142" />
<stop offset="100%" stop-color="#177e1f" />
</radialGradient>
<polygon points="100.000000 50.000000 99.977514 50.000600 99.910219 50.004792 99.798606 50.016140 99.643489 50.038149 99.445997 50.074235 99.207568 50.127700 98.929933 50.201704 98.615105 50.299238 98.265365 50.423099 97.883237 50.575869 97.471474 50.759894 97.033030 50.977260 96.571044 51.229783 96.088804 51.518988 95.589732 51.846099 95.077346 52.212028 94.555240 52.617366 94.027047 53.062382 93.496418 53.547016 92.966986 54.070882 92.442338 54.633267 91.925991 55.233143 91.421355 55.869168 90.931713 56.539701 90.460191 57.242812 90.009732 57.976301 89.583076 58.737711 89.182735 59.524351 88.810970 60.333316 88.469781 61.161510 88.160884 62.005671 87.885697 62.862398 87.645335 63.728177 87.440594 64.599408 87.271949 65.472438 87.139548 66.343583 87.043212 67.209168 86.982437 68.065544 86.956397 68.909129 86.963953 69.736428 87.003658 70.544064 87.073773 71.328807 87.172281 72.087596 87.296901 72.817568 87.445108 73.516075 87.614153 74.180712 87.801089 74.809329 88.002787 75.400054 88.215970 75.951304 88.437236 76.461800 88.663085 76.930575 88.889946 77.356984 89.114214 77.740705 89.332268 78.081746 89.540511 78.380441 89.735390 78.637448 89.913434 78.853745 90.071274 79.030618 90.205676 79.169657 90.313567 79.272734 90.392056 79.341994 90.438462 79.379836 90.450333 79.388891 90.425469 79.372004 90.361937 79.332208 90.258089 79.272700 90.112572 79.196814 89.924346 79.107996 89.692686 79.009773 89.417192 78.905726 89.097788 78.799461 88.734730 78.694578 88.328597 78.594641 87.880292 78.503153 87.391031 78.423524 86.862334 78.359041 86.296017 78.312848 85.694172 78.287913 85.059154 78.287008 84.393558 78.312685 83.700207 78.367256 82.982117 78.452772 82.242485 78.571010 81.484654 78.723452 80.712092 78.911279 79.928361 79.135360 79.137091 79.396240 78.341949 79.694142 77.546610 80.028960 76.754728 80.400262 75.969905 80.807293 75.195665 81.248981 74.435425 81.723944 73.692464 82.230502 72.969903 82.766692 72.270673 83.330280 71.597500 83.918783 70.952873 84.529484 70.339033 85.159461 69.757952 85.805602 69.211316 86.464636 68.700512 87.133156 68.226619 87.807651 67.790398 88.484527 67.392287 89.160142 67.032397 89.830833 66.710512 90.492945 66.426089 91.142863 66.178266 91.777036 65.965870 92.392011 65.787420 92.984458 65.641147 93.551196 65.525005 94.089224 65.436687 94.595735 65.373649 95.068149 65.333122 95.504128 65.312146 95.901596 65.307583 96.258756 65.316152 96.574104 65.334449 96.846440 65.358982 97.074881 65.386190 97.258865 65.412483 97.398155 65.434262 97.492843 65.447955 97.543348 65.450042 97.550413 65.437087 97.515098 65.405764 97.438772 65.352886 97.323101 65.275429 97.170036 65.170558 96.981796 65.035651 96.760849 64.868320 96.509894 64.666429 96.231837 64.428115 95.929770 64.151801 95.606944 63.836209 95.266741 63.480372 94.912651 63.083642 94.548240 62.645694 94.177123 62.166532 93.802931 61.646486 93.429288 61.086210 93.059778 60.486682 92.697912 59.849190 92.347108 59.175325 92.010656 58.466967 91.691696 57.726274 91.393189 56.955659 91.117895 56.157777 90.868352 55.335499 90.646852 54.491891 90.455423 53.630189 90.295817 52.753775 90.169490 51.866148 90.077593 50.970896 90.020962 50.071669 90.000114 49.172149 90.015238 48.276018 90.066195 47.386935 90.152523 46.508498 90.273436 45.644223 90.427832 44.797512 90.614302 43.971627 90.831142 43.169662 91.076366 42.394521 91.347722 41.648894 91.642711 40.935236 91.958607 40.255743 92.292479 39.612344 92.641214 39.006675 93.001543 38.440075 93.370070 37.913569 93.743293 37.427865 94.117639 36.983345 94.489489 36.580063 94.855211 36.217749 95.211185 35.895804 95.553836 35.613311 95.879659 35.369043 96.185253 35.161469 96.467345 34.988770 96.722816 34.848852 96.948729 34.739367 97.142350 34.657729 97.301172 34.601134 97.422937 34.566588 97.505648 34.550927 97.547594 34.550846 97.547358 34.562924 97.503829 34.583653 97.416214 34.609468 97.284042 34.636771 97.107170 34.661969 96.885780 34.681496 96.620384 34.691845 96.311814 34.689597 95.961221 34.671448 95.570059 34.634239 95.140082 34.574976 94.673320 34.490861 94.172073 34.379311 93.638883 34.237981 93.076520 34.064782 92.487959 33.857898 91.876353 33.615805 91.245009 33.337277 90.597364 33.021402 89.936953 32.667588 89.267384 32.275565 88.592308 31.845393 87.915388 31.377457 87.240272 30.872468 86.570562 30.331453 85.909787 29.755753 85.261370 29.147006 84.628606 28.507139 84.014633 27.838352 83.422408 27.143095 82.854679 26.424059 82.313969 25.684143 81.802553 24.926438 81.322438 24.154203 80.875351 23.370832 80.462720 22.579835 80.085668 21.784802 79.745002 20.989383 79.441206 20.197251 79.174436 19.412075 78.944522 18.637494 78.750971 17.877081 78.592964 17.134323 78.469371 16.412585 78.378755 15.715086 78.319385 15.044876 78.289255 14.404808 78.286091 13.797515 78.307379 13.225392 78.350381 12.690576 78.412157 12.194924 78.489591 11.740006 78.579415 11.327089 78.678239 10.957123 78.782572 10.630741 78.888857 10.348250 78.993499 10.109627 79.092890 9.914524 79.183444 9.762267 79.261623 9.651864 79.323966 9.582014 79.367119 9.551114 79.387862 9.557275 79.383134 9.598339 79.350059 9.671892 79.285969 9.775288 79.188429 9.905670 79.055250 10.059990 78.884516 10.235038 78.674592 10.427466 78.424142 10.633816 78.132140 10.850548 77.797874 11.074068 77.420959 11.300759 77.001336 11.527009 76.539273 11.749241 76.035365 11.963943 75.490528 12.167693 74.905992 12.357193 74.283292 12.529290 73.624255 12.681006 72.930988 12.809557 72.205856 12.912383 71.451470 12.987163 70.670660 13.031835 69.866458 13.044615 69.042068 13.024010 68.200846 12.968831 67.346269 12.878201 66.481908 12.751564 65.611402 12.588690 64.738426 12.389674 63.866663 12.154940 62.999773 11.885234 62.141367 11.581618 61.294973 11.245464 60.464014 10.878443 59.651774 10.482507 58.861379 10.059880 58.095765 9.613035 57.357658 9.144676 56.649555 8.657715 55.973697 8.155251 55.332059 7.640543 54.726328 7.116985 54.157894 6.588076 53.627838 6.057395 53.136921 5.528570 52.685583 5.005250 52.273935 4.491074 51.901761 3.989644 51.568521 3.504492 51.273353 3.039055 51.015082 2.596648 50.792230 2.180432 50.603028 1.793395 50.445431 1.438321 50.317133 1.117774 50.215588 0.834074 50.138032 0.589277 50.081503 0.385161 50.042867 0.223212 50.018842 0.104607 50.006029 0.030213 50.000934 0.000571 50.000002 0.015897 49.999644 0.076080 49.996263 0.180680 49.986291 0.328936 49.966212 0.519768 49.932592 0.751786 49.882110 1.023304 49.811582 1.332354 49.717989 1.676697 49.598499 2.053845 49.450497 2.461082 49.271596 2.895481 49.059669 3.353935 48.812855 3.833175 48.529582 4.329800 48.208577 4.840304 47.848879 5.361105 47.449844 5.888573 47.011151 6.419058 46.532810 6.948923 46.015153 7.474569 45.458842 7.992470 44.864855 8.499195 44.234485 8.991438 43.569326 9.466048 42.871263 9.920051 42.142454 10.350672 41.385317 10.755363 40.602506 11.131819 39.796894 11.478000 38.971548 11.792144 38.129705 12.072782 37.274747 12.318752 36.410170 12.529206 35.539564 12.703618 34.666575 12.841789 33.794882 12.943843 32.928167 13.010235 32.070082 13.041738 31.224223 13.039444 30.394102 13.004750 29.583114 12.939350 28.794515 12.845218 28.031395 12.724594 27.296651 12.579965 26.592964 12.414046 25.922783 12.229755 25.288296 12.030192 24.691423 11.818613 24.133792 11.598402 23.616733 11.373046 23.141261 11.146105 22.708075 10.921182 22.317547 10.701896 21.969722 10.491852 21.664319 10.294609 21.400730 10.113656 21.178028 9.952378 20.994974 9.814032 20.850028 9.701720 20.741360 9.618363 20.666868 9.566677 20.624193 9.549152 20.610738 9.568028 20.623692 9.625284 20.660049 9.722614 20.716638 9.861416 20.790144 10.042783 20.877136 10.267490 20.974100 10.535990 21.077461 10.848409 21.183614 11.204545 21.288958 11.603869 21.389918 12.045531 21.482983 12.528364 21.564725 13.050893 21.631834 13.611352 21.681144 14.207690 21.709656 14.837593 21.714565 15.498502 21.693282 16.187630 21.643457 16.901989 21.562996 17.638411 21.450077 18.393573 21.303169 19.164025 21.121044 19.946219 20.902782 20.736532 20.647786 21.531304 20.355782 22.326857 20.026823 23.119533 19.661289 23.905718 19.259884 24.681875 18.823632 25.444569 18.353863 26.190495 17.852213 26.916507 17.320600 27.619640 16.761215 28.297137 16.176504 28.946467 15.569148 29.565349 14.942037 30.151767 14.298256 30.703990 13.641050 31.220582 12.973808 31.700412 12.300026 32.142671 11.623286 32.546867 10.947225 32.912839 10.275505 33.240749 9.611783 33.531089 8.959683 33.784670 8.322769 34.002617 7.704510 34.186363 7.108258 34.337630 6.537219 34.458423 5.994426 34.551008 5.482716 34.617893 5.004708 34.661811 4.562780 34.685695 4.159051 34.692656 3.795363 34.685954 3.473268 34.668973 3.194014 34.645197 2.958536 34.618175 2.767448 34.591495 2.621037 34.568757 2.519265 34.553539 2.461765 34.549371 2.447844 34.559705 2.476493 34.587885 2.546391 34.637123 2.655919 34.710470 2.803170 34.810794 2.985968 34.940751 3.201881 35.102768 3.448246 35.299023 3.722189 35.531423 4.020645 35.801592 4.340389 36.110855 4.678055 36.460231 5.030170 36.850418 5.393179 37.281792 5.763471 37.754404 6.137417 38.267975 6.511388 38.821900 6.881794 39.415255 7.245109 40.046800 7.597899 40.714991 7.936851 41.417992 8.258800 42.153691 8.560755 42.919712 8.839921 43.713438 9.093725 44.532031 9.319835 45.372455 9.516177 46.231498 9.680957 47.105800 9.812670 47.991880 9.910115 48.886160 9.972405 49.785000 9.998973 50.684721 9.989578 51.581637 9.944305 52.472086 9.863565 53.352456 9.748095 54.219217 9.598945 55.068948 9.417477 55.898362 9.205348 56.704336 8.964501 57.483935 8.697146 58.234433 8.405744 58.953337 8.092986 59.638407 7.761773 60.287672 7.415190 60.899447 7.056483 61.472347 6.689030 62.005294 6.316317 62.497530 5.941909 62.948622 5.569417 63.358462 5.202476 63.727269 4.844709 64.055591 4.499700 64.344292 4.170966 64.594553 3.861927 64.807857 3.575879 64.985977 3.315966 65.130965 3.085157 65.245129 2.886219 65.331021 2.721697 65.391408 2.593890 65.429258 2.504837 65.447709 2.456295 65.450045 2.449731 65.439670 2.486304 65.420081 2.566857 65.394836 2.691914 65.367529 2.861671 65.341756 3.075997 65.321089 3.334432 65.309047 3.636194 65.309065 3.980185 65.324465 4.364995 65.358434 4.788919 65.413992 5.249969 65.493970 5.745889 65.600987 6.274171 65.737427 6.832081 65.905422 7.416677 66.106831 8.024831 66.343227 8.653258 66.615883 9.298541 66.925761 9.957159 67.273507 10.625513 67.659440 11.299958 68.083553 11.976829 68.545514 12.652475 69.044662 13.323284 69.580021 13.985715 70.150300 14.636325 70.753905 15.271796 71.388956 15.888964 72.053295 16.484843 72.744510 17.056648 73.459948 17.601820 74.196741 18.118043 74.951827 18.603266 75.721972 19.055717 76.503801 19.473919 77.293823 19.856699 78.088456 20.203201 78.884059 20.512889 79.676961 20.785553 80.463489 21.021311 81.240000 21.220608 82.002904 21.384208 82.748703 21.513194 83.474009 21.608954 84.175577 21.673172 84.850329 21.707814 85.495381 21.715110 86.108060 21.697538 86.685934 21.657803 87.226824 21.598813 87.728826 21.523658 88.190324 21.435582 88.610003 21.337961 88.986860 21.234268 89.320212 21.128054 89.609701 21.022909 89.855295 20.922440 90.057293 20.830240 90.216315 20.749857 90.333305 20.684764 90.409514 20.638335 90.446498 20.613813 90.446102 20.614287 90.410442 20.642663 90.341892 20.701644 90.243062 20.793704 90.116779 20.921071 89.966060 21.085707 89.794093 21.289292 89.604204 21.533210 89.399836 21.818540 89.184518 22.146040 88.961837 22.516150 88.735409 22.928980 88.508848 23.384315 88.285738 23.881612 88.069606 24.420005 87.863887 24.998313 87.671902 25.615050 87.496829 26.268434 87.341676 26.956401 87.209258 27.676627 87.102173 28.426538 87.022782 29.203337 86.973188 30.004024 86.955221 30.825420 86.970421 31.664191 87.020026 32.516878 87.104965 33.379923 87.225843 34.249696 87.382944 35.122525 87.576224 35.994727 87.805310 36.862637 88.069510 37.722633 88.367809 38.571172 88.698885 39.404813 89.061114 40.220248 89.452586 41.014324 89.871121 41.784073 90.314285 42.526734 90.779408 43.239773 91.263609 43.920905 91.763818 44.568114 92.276800 45.179665 92.799181 45.754119 93.327475 46.290347 93.858116 46.787535 94.387480 47.245193 94.911922 47.663156 95.427796 48.041589 95.931495 48.380981 96.419473 48.682142 96.888275 48.946198 97.334566 49.174579 97.755157 49.369010 98.147034 49.531494 98.507376 49.664294 98.833584 49.769920 99.123297 49.851103 99.374416 49.910775 99.585118 49.952045 99.753871 49.978171 99.879444 49.992538 99.960925 49.998626 99.997717 49.999981" fill="url(#hypocycloid_pattern3_gradient3)" fill-opacity="1.000000"/>
</pattern>
</defs>
<rect x="0.000000" y="0.000000" width="1000.000000" height="1000.000000" fill="url(#hypocycloid_pattern3)" fill-opacity="1.000000" />
</svg>
