<svg xmlns="http://www.w3.org/2000/svg" version="1.1" width="1000.000000" height="1000.000000">
<rect x="0.000000" y="0.000000" width="1000.000000" height="1000.000000" fill="#000000" fill-opacity="1.000000" />
<defs>
<pattern id="hypocycloid_pattern1" x="0.000000" y="0.000000" width="100.000000" height="100.000000"  patternUnits="userSpaceOnUse" patternContentUnit="userSpaceOnUse" >
<radialGradient id="hypocycloid_pattern1_gradient1">
<stop offset="0%" stop-color="#8bff95" />
<stop offset="50%" stop-color="#38b142" />
<stop offset="100%" stop-color="#177e1f" />
</radialGradient>
<polygon points="80.000000 50.000000 79.997000 50.000010 79.988001 50.000080 79.973006 50.000270 79.952019 50.000640 79.925047 50.001249 79.892097 50.002158 79.853180 50.003426 79.808307 50.005112 79.757492 50.007275 79.700749 50.009975 79.638096 50.013270 79.569552 50.017218 79.495138 50.021877 79.414874 50.027306 79.328786 50.033561 79.236900 50.040699 79.139242 50.048776 79.035842 50.057849 78.926731 50.067973 78.811941 50.079203 78.691508 50.091593 78.565466 50.105198 78.433853 50.120069 78.296709 50.136261 78.154074 50.153824 78.005991 50.172810 77.852505 50.193269 77.693660 50.215251 77.529504 50.238805 77.360086 50.263979 77.185456 50.290821 77.005666 50.319377 76.820769 50.349692 76.630820 50.381812 76.435876 50.415779 76.235994 50.451638 76.031232 50.489430 75.821653 50.529195 75.607317 50.570974 75.388287 50.614806 75.164629 50.660728 74.936407 50.708778 74.703690 50.758990 74.466545 50.811401 74.225042 50.866042 73.979252 50.922946 73.729246 50.982145 73.475098 51.043668 73.216883 51.107544 72.954674 51.173801 72.688550 51.242465 72.418586 51.313560 72.144862 51.387112 71.867457 51.463142 71.586452 51.541671 71.301927 51.622720 71.013965 51.706306 70.722648 51.792448 70.428062 51.881160 70.130290 51.972459 69.829418 52.066356 69.525532 52.162863 69.218719 52.261992 68.909067 52.363750 68.596664 52.468146 68.281599 52.575186 67.963961 52.684874 67.643841 52.797214 67.321329 52.912208 66.996515 53.029856 66.669492 53.150158 66.340352 53.273110 66.009186 53.398709 65.676087 53.526950 65.341149 53.657825 65.004465 53.791327 64.666128 53.927446 64.326232 54.066171 63.984871 54.207489 63.642139 54.351386 63.298130 54.497846 62.952940 54.646853 62.606661 54.798388 62.259389 54.952430 61.911218 55.108960 61.562242 55.267954 61.212556 55.429387 60.862254 55.593234 60.511431 55.759469 60.160178 55.928062 59.808592 56.098984 59.456764 56.272202 59.104789 56.447686 58.752759 56.625400 58.400766 56.805309 58.048903 56.987377 57.697262 57.171564 57.345933 57.357832 56.995008 57.546140 56.644578 57.736445 56.294731 57.928705 55.945557 58.122874 55.597146 58.318906 55.249584 58.516755 54.902960 58.716371 54.557360 58.917705 54.212870 59.120706 53.869576 59.325322 53.527562 59.531499 53.186911 59.739183 52.847708 59.948319 52.510033 60.158850 52.173968 60.370717 51.839593 60.583863 51.506989 60.798227 51.176232 61.013748 50.847400 61.230364 50.520571 61.448013 50.195819 61.666630 49.873218 61.886150 49.552842 62.106508 49.234763 62.327637 48.919052 62.549470 48.605778 62.771937 48.295011 62.994971 47.986818 63.218500 47.681265 63.442455 47.378416 63.666763 47.078337 63.891352 46.781089 64.116150 46.486733 64.341083 46.195330 64.566076 45.906938 64.791055 45.621613 65.015944 45.339412 65.240668 45.060390 65.465150 44.784598 65.689313 44.512090 65.913080 44.242914 66.136373 43.977119 66.359113 43.714754 66.581222 43.455863 66.802622 43.200491 67.023232 42.948681 67.242973 42.700474 67.461767 42.455909 67.679531 42.215025 67.896187 41.977859 68.111654 41.744446 68.325852 41.514819 68.538700 41.289010 68.750117 41.067051 68.960023 40.848969 69.168337 40.634791 69.374979 40.424545 69.579869 40.218253 69.782925 40.015939 69.984067 39.817623 70.183216 39.623325 70.380291 39.433062 70.575213 39.246850 70.767903 39.064705 70.958281 38.886638 71.146268 38.712661 71.331786 38.542785 71.514758 38.377016 71.695104 38.215362 71.872749 38.057827 72.047615 37.904415 72.219626 37.755128 72.388707 37.609966 72.554783 37.468927 72.717778 37.332008 72.877620 37.199205 73.034235 37.070512 73.187551 36.945921 73.337496 36.825423 73.483999 36.709008 73.626989 36.596663 73.766398 36.488374 73.902157 36.384127 74.034198 36.283904 74.162455 36.187687 74.286862 36.095458 74.407353 36.007195 74.523865 35.922875 74.636336 35.842474 74.744703 35.765968 74.848906 35.693330 74.948885 35.624532 75.044581 35.559543 75.135937 35.498335 75.222897 35.440874 75.305406 35.387127 75.383410 35.337060 75.456856 35.290638 75.525693 35.247822 75.589872 35.208574 75.649343 35.172856 75.704059 35.140627 75.753973 35.111844 75.799043 35.086466 75.839223 35.064447 75.874472 35.045742 75.904751 35.030307 75.930018 35.018092 75.950239 35.009051 75.965375 35.003134 75.975394 35.000290 75.980261 35.000470 75.979945 35.003620 75.974417 35.009687 75.963648 35.018619 75.947611 35.030360 75.926281 35.044855 75.899635 35.062048 75.867651 35.081882 75.830308 35.104299 75.787588 35.129241 75.739473 35.156649 75.685949 35.186463 75.627001 35.218624 75.562619 35.253069 75.492791 35.289738 75.417508 35.328570 75.336765 35.369500 75.250556 35.412468 75.158877 35.457408 75.061727 35.504258 74.959105 35.552954 74.851014 35.603431 74.737457 35.655625 74.618439 35.709469 74.493968 35.764900 74.364051 35.821852 74.228700 35.880258 74.087926 35.940054 73.941743 36.001173 73.790168 36.063549 73.633217 36.127116 73.470910 36.191807 73.303267 36.257557 73.130312 36.324300 72.952068 36.391969 72.768561 36.460499 72.579820 36.529822 72.385874 36.599875 72.186754 36.670590 71.982492 36.741904 71.773124 36.813750 71.558686 36.886063 71.339215 36.958780 71.114751 37.031835 70.885335 37.105165 70.651010 37.178707 70.411821 37.252397 70.167813 37.326172 69.919035 37.399971 69.665535 37.473731 69.407364 37.547392 69.144574 37.620892 68.877220 37.694172 68.605356 37.767173 68.329040 37.839834 68.048330 37.912099 67.763285 37.983910 67.473968 38.055210 67.180440 38.125942 66.882766 38.196053 66.581011 38.265486 66.275242 38.334189 65.965528 38.402108 65.651938 38.469192 65.334542 38.535389 65.013412 38.600650 64.688623 38.664925 64.360249 38.728165 64.028364 38.790324 63.693047 38.851355 63.354376 38.911212 63.012429 38.969852 62.667288 39.027230 62.319033 39.083305 61.967746 39.138036 61.613513 39.191383 61.256416 39.243307 60.896541 39.293769 60.533975 39.342734 60.168806 39.390167 59.801120 39.436032 59.431008 39.480297 59.058559 39.522930 58.683864 39.563901 58.307014 39.603181 57.928102 39.640740 57.547220 39.676553 57.164461 39.710595 56.779920 39.742840 56.393692 39.773267 56.005872 39.801853 55.616555 39.828578 55.225839 39.853425 54.833819 39.876374 54.440594 39.897410 54.046261 39.916518 53.650918 39.933685 53.254663 39.948898 52.857596 39.962147 52.459814 39.973423 52.061418 39.982718 51.662507 39.990025 51.263181 39.995339 50.863538 39.998656 50.463680 39.999975 50.063706 39.999293 49.663716 39.996612 49.263810 39.991934 48.864088 39.985261 48.464650 39.976599 48.065596 39.965954 47.667025 39.953332 47.269037 39.938743 46.871732 39.922197 46.475207 39.903706 46.079563 39.883283 45.684897 39.860941 45.291309 39.836698 44.898895 39.810569 44.507753 39.782573 44.117980 39.752731 43.729672 39.721062 43.342927 39.687590 42.957838 39.652339 42.574502 39.615332 42.193011 39.576598 41.813461 39.536163 41.435944 39.494056 41.060553 39.450307 40.687379 39.404948 40.316513 39.358011 39.948044 39.309530 39.582064 39.259541 39.218659 39.208079 38.857918 39.155181 38.499927 39.100887 38.144772 39.045235 37.792538 38.988267 37.443308 38.930025 37.097166 38.870551 36.754193 38.809889 36.414469 38.748084 36.078076 38.685183 35.745090 38.621233 35.415589 38.556281 35.089649 38.490377 34.767346 38.423569 34.448753 38.355911 34.133943 38.287452 33.822986 38.218245 33.515953 38.148345 33.212912 38.077805 32.913931 38.006679 32.619076 37.935025 32.328410 37.862899 32.041998 37.790357 31.759901 37.717458 31.482179 37.644261 31.208891 37.570824 30.940094 37.497208 30.675844 37.423473 30.416196 37.349679 30.161203 37.275890 29.910915 37.202166 29.665382 37.128570 29.424653 37.055166 29.188774 36.982016 28.957790 36.909185 28.731744 36.836736 28.510678 36.764734 28.294633 36.693244 28.083645 36.622331 27.877754 36.552060 27.676992 36.482497 27.481394 36.413708 27.290992 36.345757 27.105815 36.278712 26.925892 36.212639 26.751249 36.147603 26.581912 36.083671 26.417903 36.020908 26.259243 35.959382 26.105954 35.899157 25.958052 35.840301 25.815553 35.782879 25.678473 35.726957 25.546824 35.672600 25.420617 35.619873 25.299861 35.568843 25.184564 35.519572 25.074732 35.472127 24.970368 35.426571 24.871475 35.382969 24.778053 35.341382 24.690102 35.301876 24.607618 35.264511 24.530597 35.229350 24.459032 35.196456 24.392916 35.165887 24.332239 35.137706 24.276988 35.111972 24.227152 35.088745 24.182715 35.068082 24.143662 35.050041 24.109972 35.034681 24.081628 35.022056 24.058608 35.012224 24.040888 35.005238 24.028443 35.001153 24.021249 35.000022 24.019276 35.001897 24.022495 35.006830 24.030876 35.014870 24.044386 35.026069 24.062991 35.040473 24.086655 35.058131 24.115342 35.079089 24.149012 35.103393 24.187626 35.131087 24.231143 35.162214 24.279519 35.196816 24.332710 35.234935 24.390672 35.276610 24.453356 35.321879 24.520715 35.370782 24.592698 35.423352 24.669256 35.479626 24.750336 35.539638 24.835884 35.603419 24.925846 35.671000 25.020166 35.742412 25.118787 35.817684 25.221650 35.896841 25.328697 35.979909 25.439868 36.066914 25.555099 36.157878 25.674330 36.252822 25.797497 36.351766 25.924534 36.454730 26.055377 36.561730 26.189959 36.672781 26.328213 36.787899 26.470070 36.907095 26.615462 37.030381 26.764318 37.157767 26.916567 37.289260 27.072139 37.424867 27.230961 37.564593 27.392960 37.708442 27.558063 37.856415 27.726195 38.008513 27.897281 38.164735 28.071246 38.325077 28.248014 38.489536 28.427508 38.658105 28.609652 38.830776 28.794367 39.007542 28.981576 39.188389 29.171201 39.373307 29.363163 39.562281 29.557382 39.755296 29.753781 39.952335 29.952278 40.153377 30.152794 40.358405 30.355249 40.567394 30.559563 40.780321 30.765655 40.997163 30.973446 41.217890 31.182854 41.442476 31.393798 41.670890 31.606199 41.903101 31.819976 42.139076 32.035047 42.378779 32.251333 42.622175 32.468753 42.869226 32.687227 43.119893 32.906676 43.374135 33.127018 43.631910 33.348174 43.893174 33.570066 44.157881 33.792614 44.425985 34.015739 44.697437 34.239363 44.972188 34.463409 45.250188 34.687797 45.531382 34.912453 45.815717 35.137298 46.103139 35.362256 46.393589 35.587253 46.687011 35.812213 46.983344 36.037062 47.282528 36.261726 47.584501 36.486131 47.889200 36.710206 48.196560 36.933879 48.506514 37.157078 48.818997 37.379733 49.133939 37.601775 49.451271 37.823136 49.770923 38.043747 50.092823 38.263541 50.416898 38.482453 50.743074 38.700417 51.071276 38.917369 51.401428 39.133246 51.733453 39.347985 52.067272 39.561525 52.402807 39.773806 52.739978 39.984769 53.078704 40.194356 53.418902 40.402508 53.760491 40.609172 54.103387 40.814291 54.447505 41.017812 54.792760 41.219682 55.139068 41.419851 55.486340 41.618268 55.834491 41.814884 56.183431 42.009651 56.533073 42.202524 56.883328 42.393457 57.234105 42.582405 57.585315 42.769328 57.936866 42.954182 58.288669 43.136929 58.640630 43.317530 58.992658 43.495947 59.344661 43.672145 59.696546 43.846089 60.048219 44.017746 60.399588 44.187084 60.750558 44.354073 61.101037 44.518683 61.450929 44.680889 61.800141 44.840662 62.148579 44.997979 62.496148 45.152816 62.842753 45.305152 63.188300 45.454966 63.532696 45.602240 63.875845 45.746955 64.217652 45.889096 64.558025 46.028648 64.896869 46.165598 65.234090 46.299935 65.569595 46.431648 65.903289 46.560729 66.235081 46.687170 66.564876 46.810966 66.892584 46.932112 67.218111 47.050605 67.541366 47.166445 67.862258 47.279630 68.180697 47.390163 68.496591 47.498045 68.809852 47.603283 69.120390 47.705881 69.428116 47.805846 69.732944 47.903188 70.034785 47.997915 70.333554 48.090040 70.629164 48.179574 70.921531 48.266533 71.210571 48.350932 71.496200 48.432787 71.778335 48.512117 72.056896 48.588940 72.331801 48.663279 72.602971 48.735154 72.870327 48.804590 73.133791 48.871611 73.393287 48.936242 73.648738 48.998512 73.900071 49.058448 74.147212 49.116080 74.390088 49.171438 74.628629 49.224555 74.862764 49.275464 75.092425 49.324199 75.317544 49.370795 75.538055 49.415289 75.753893 49.457718 75.964995 49.498120 76.171298 49.536536 76.372741 49.573006 76.569264 49.607571 76.760810 49.640275 76.947322 49.671160 77.128745 49.700271 77.305024 49.727654 77.476108 49.753354 77.641945 49.777419 77.802487 49.799897 77.957686 49.820836 78.107494 49.840285 78.251869 49.858296 78.390767 49.874919 78.524146 49.890205 78.651966 49.904207 78.774191 49.916979 78.890782 49.928572 79.001705 49.939043 79.106928 49.948445 79.206418 49.956833 79.300146 49.964264 79.388084 49.970794 79.470205 49.976480 79.546485 49.981378 79.616902 49.985546 79.681433 49.989043 79.740060 49.991926 79.792765 49.994254 79.839532 49.996085 79.880348 49.997480 79.915200 49.998497 79.944077 49.999195 79.966971 49.999635 79.983875 49.999875 79.994785 49.999977 79.999696 50.000000" fill="url(#hypocycloid_pattern1_gradient1)" fill-opacity="1.000000"/>
</pattern>
</defs>
<rect x="0.000000" y="0.000000" width="1000.000000" height="1000.000000" fill="url(#hypocycloid_pattern1)" fill-opacity="1.000000" />
</svg>
