<svg xmlns="http://www.w3.org/2000/svg" version="1.1" width="1000.000000" height="1000.000000">
<defs>
<pattern id="pattern12" x="0.000000" y="0.000000" width="100.000000" height="100.000000"  patternUnits="userSpaceOnUse" patternContentUnit="userSpaceOnUse" >
<radialGradient id="gradient12">
<stop offset="0%" stop-color="#8bff95" />
<stop offset="50%" stop-color="#38b142" />
<stop offset="100%" stop-color="#177e1f" />
</radialGradient>
<polygon points="216.666667 50.000000 216.643334 52.666522 216.573344 55.332178 216.456723 57.996101 216.293511 60.657425 216.083767 63.315286 215.827566 65.968821 215.525000 68.617168 215.176175 71.259467 214.781218 73.894861 214.340269 76.522494 213.853485 79.141516 213.321040 81.751076 212.743124 84.350331 212.119944 86.938439 211.451721 89.514563 210.738694 92.077870 209.981118 94.627532 209.179262 97.162728 208.333413 99.682640 207.443871 102.186456 206.510955 104.673372 205.534996 107.142588 204.516343 109.593312 203.455357 112.024759 202.352418 114.436151 201.207917 116.826717 200.022261 119.195695 198.795874 121.542330 197.529190 123.865875 196.222661 126.165594 194.876750 128.440758 193.491937 130.690648 192.068713 132.914554 190.607583 135.111775 189.109066 137.281623 187.573694 139.423416 186.002012 141.536487 184.394577 143.620176 182.751958 145.673836 181.074737 147.696832 179.363509 149.688538 177.618879 151.648342 175.841463 153.575643 174.031892 155.469852 172.190804 157.330393 170.318849 159.156702 168.416688 160.948229 166.484993 162.704435 164.524445 164.424796 162.535735 166.108801 160.519562 167.755952 158.476638 169.365765 156.407680 170.937771 154.313415 172.471513 152.194580 173.966551 150.051919 175.422457 147.886182 176.838820 145.698130 178.215240 143.488528 179.551336 141.258150 180.846740 139.007776 182.101100 136.738192 183.314077 134.450191 184.485351 132.144571 185.614615 129.822136 186.701579 127.483694 187.745967 125.130059 188.747520 122.762048 189.705995 120.380484 190.621165 117.986193 191.492819 115.580005 192.320761 113.162753 193.104813 110.735271 193.844812 108.298400 194.540612 105.852978 195.192083 103.399849 195.799111 100.939857 196.361599 98.473848 196.879467 96.002667 197.352649 93.527162 197.781100 91.048180 198.164786 88.566569 198.503693 86.083176 198.797824 83.598846 199.047195 81.114427 199.251841 78.630761 199.411814 76.148692 199.527180 73.669059 199.598024 71.192702 199.624444 68.720455 199.606557 66.253152 199.544496 63.791623 199.438408 61.336693 199.288458 58.889185 199.094826 56.449916 198.857709 54.019701 198.577319 51.599347 198.253882 49.189660 197.887643 46.791437 197.478861 44.405470 197.027808 42.032547 196.534775 39.673447 196.000067 37.328945 195.424001 34.999807 194.806913 32.686793 194.149152 30.390655 193.451080 28.112137 192.713077 25.851976 191.935533 23.610901 191.118856 21.389630 190.263464 19.188874 189.369793 17.009335 188.438289 14.851706 187.469412 12.716668 186.463637 10.604894 185.421451 8.517047 184.343352 6.453780 183.229852 4.415733 182.081477 2.403537 180.898763 0.417812 179.682257 -1.540834 178.432520 -3.471804 177.150124 -5.374513 175.835650 -7.248389 174.489692 -9.092871 173.112856 -10.907410 171.705754 -12.691471 170.269013 -14.444530 168.803268 -16.166079 167.309162 -17.855620 165.787350 -19.512670 164.238494 -21.136759 162.663268 -22.727431 161.062352 -24.284243 159.436434 -25.806768 157.786212 -27.294592 156.112390 -28.747314 154.415682 -30.164549 152.696806 -31.545927 150.956489 -32.891091 149.195464 -34.199701 147.414470 -35.471430 145.614253 -36.705968 143.795563 -37.903017 141.959158 -39.062299 140.105799 -40.183546 138.236252 -41.266510 136.351288 -42.310956 134.451683 -43.316666 132.538215 -44.283436 130.611667 -45.211080 128.672824 -46.099425 126.722475 -46.948316 124.761412 -47.757613 122.790427 -48.527193 120.810317 -49.256948 118.821879 -49.946785 116.825911 -50.596629 114.823212 -51.206419 112.814584 -51.776112 110.800826 -52.305681 108.782739 -52.795112 106.761124 -53.244410 104.736779 -53.653595 102.710505 -54.022703 100.683099 -54.351785 98.655357 -54.640910 96.628073 -54.890161 94.602039 -55.099637 92.578045 -55.269452 90.556877 -55.399738 88.539320 -55.490641 86.526153 -55.542321 84.518153 -55.554956 82.516093 -55.528739 80.520740 -55.463876 78.532859 -55.360591 76.553206 -55.219120 74.582537 -55.039717 72.621598 -54.822648 70.671131 -54.568195 68.731872 -54.276655 66.804551 -53.948338 64.889889 -53.583568 62.988602 -53.182686 61.101399 -52.746044 59.228981 -52.274008 57.372039 -51.766959 55.531260 -51.225291 53.707319 -50.649409 51.900883 -50.039735 50.112613 -49.396700 48.343157 -48.720751 46.593156 -48.012345 44.863241 -47.271953 43.154032 -46.500056 41.466139 -45.697149 39.800164 -44.863739 38.156694 -44.000341 36.536310 -43.107485 34.939579 -42.185709 33.367057 -41.235565 31.819289 -40.257612 30.296808 -39.252421 28.800135 -38.220574 27.329780 -37.162661 25.886239 -36.079282 24.469997 -34.971047 23.081525 -33.838573 21.721282 -32.682489 20.389714 -31.503429 19.087253 -30.302038 17.814318 -29.078967 16.571315 -27.834875 15.358636 -26.570428 14.176659 -25.286302 13.025748 -23.983175 11.906253 -22.661735 10.818511 -21.322675 9.762842 -19.966695 8.739553 -18.594498 7.748937 -17.206795 6.791272 -15.804301 5.866820 -14.387735 4.975830 -12.957821 4.118535 -11.515289 3.295152 -10.060869 2.505885 -8.595297 1.750922 -7.119311 1.030435 -5.633654 0.344580 -4.139069 -0.306499 -2.636303 -0.922677 -1.126103 -1.503842 0.390780 -2.049899 1.913595 -2.560769 3.441591 -3.036386 4.974014 -3.476701 6.510112 -3.881682 8.049130 -4.251310 9.590317 -4.585582 11.132920 -4.884512 12.676188 -5.148129 14.219371 -5.376476 15.761719 -5.569613 17.302487 -5.727614 18.840929 -5.850571 20.376303 -5.938588 21.907871 -5.991786 23.434896 -6.010301 24.956644 -5.994285 26.472387 -5.943902 27.981400 -5.859334 29.482962 -5.740778 30.976356 -5.588442 32.460872 -5.402554 33.935802 -5.183352 35.400447 -4.931090 36.854112 -4.646038 38.296107 -4.328478 39.725750 -3.978707 41.142366 -3.597036 42.545286 -3.183789 43.933847 -2.739304 45.307397 -2.263933 46.665287 -1.758041 48.006881 -1.222007 49.331547 -0.656221 50.638665 -0.061087 51.927621 0.562977 53.197811 1.215543 54.448642 1.896170 55.679529 2.604403 56.889895 3.339778 58.079177 4.101818 59.246819 4.890034 60.392277 5.703925 61.515018 6.542983 62.614519 7.406684 63.690268 8.294497 64.741765 9.205880 65.768522 10.140278 66.770063 11.097131 67.745922 12.075866 68.695646 13.075902 69.618796 14.096647 70.514944 15.137502 71.383674 16.197859 72.224586 17.277102 73.037289 18.374605 73.821407 19.489737 74.576580 20.621858 75.302456 21.770320 75.998702 22.934468 76.664996 24.113643 77.301030 25.307177 77.906510 26.514395 78.481158 27.734619 79.024708 28.967164 79.536911 30.211340 80.017529 31.466451 80.466341 32.731797 80.883141 34.006674 81.267737 35.290375 81.619952 36.582186 81.939622 37.881392 82.226602 39.187275 82.480759 40.499113 82.701977 41.816182 82.890152 43.137755 83.045200 44.463104 83.167048 45.791499 83.255640 47.122210 83.310936 48.454503 83.332911 49.787647 83.321553 51.120907 83.276869 52.453551 83.198879 53.784845 83.087618 55.114057 82.943139 56.440456 82.765507 57.763311 82.554804 59.081893 82.311127 60.395476 82.034589 61.703334 81.725316 63.004745 81.383451 64.298990 81.009151 65.585351 80.602589 66.863116 80.163952 68.131575 79.693441 69.390022 79.191275 70.637757 78.657683 71.874082 78.092912 73.098305 77.497223 74.309740 76.870891 75.507706 76.214203 76.691527 75.527464 77.860534 74.810989 79.014064 74.065112 80.151461 73.290174 81.272074 72.486536 82.375262 71.654569 83.460389 70.794656 84.526829 69.907197 85.573963 68.992603 86.601179 68.051296 87.607876 67.083713 88.593459 66.090303 89.557344 65.071527 90.498957 64.027858 91.417731 62.959780 92.313111 61.867790 93.184551 60.752395 94.031516 59.614116 94.853479 58.453481 95.649929 57.271033 96.420360 56.067322 97.164280 54.842910 97.881210 53.598369 98.570680 52.334281 99.232233 51.051237 99.865423 49.749838 100.469818 48.430695 101.044997 47.094425 101.590551 45.741657 102.106086 44.373025 102.591219 42.989175 103.045581 41.590757 103.468815 40.178432 103.860580 38.752865 104.220547 37.314731 104.548400 35.864709 104.843838 34.403486 105.106574 32.931756 105.336335 31.450218 105.532862 29.959575 105.695910 28.460537 105.825250 26.953819 105.920666 25.440141 105.981958 23.920227 106.008940 22.394803 106.001441 20.864603 105.959306 19.330361 105.882394 17.792816 105.770579 16.252708 105.623751 14.710782 105.441814 13.167784 105.224690 11.624462 104.972313 10.081566 104.684635 8.539846 104.361623 7.000055 104.003257 5.462945 103.609536 3.929270 103.180473 2.399782 102.716096 0.875235 102.216450 -0.643619 101.681593 -2.156029 101.111601 -3.661244 100.506564 -5.158516 99.866589 -6.647098 99.191797 -8.126245 98.482325 -9.595214 97.738325 -11.053266 96.959966 -12.499665 96.147429 -13.933678 95.300913 -15.354574 94.420631 -16.761629 93.506811 -18.154121 92.559698 -19.531334 91.579548 -20.892557 90.566636 -22.237083 89.521248 -23.564210 88.443688 -24.873245 87.334271 -26.163498 86.193330 -27.434287 85.021210 -28.684935 83.818270 -29.914774 82.584884 -31.123142 81.321440 -32.309385 80.028339 -33.472858 78.705996 -34.612920 77.354839 -35.728944 75.975310 -36.820307 74.567863 -37.886397 73.132966 -38.926611 71.671098 -39.940356 70.182754 -40.927048 68.668438 -41.886111 67.128667 -42.816983 65.563971 -43.719110 63.974892 -44.591950 62.361981 -45.434969 60.725802 -46.247647 59.066932 -47.029476 57.385956 -47.779956 55.683471 -48.498602 53.960085 -49.184940 52.216413 -49.838508 50.453086 -50.458856 48.670738 -51.045548 46.870018 -51.598159 45.051581 -52.116279 43.216092 -52.599510 41.364225 -53.047466 39.496661 -53.459778 37.614092 -53.836088 35.717215 -54.176052 33.806736 -54.479341 31.883369 -54.745640 29.947834 -54.974649 28.000858 -55.166079 26.043174 -55.319661 24.075523 -55.435136 22.098651 -55.512262 20.113308 -55.550813 18.120253 -55.550575 16.120246 -55.511351 14.114054 -55.432960 12.102449 -55.315236 10.086206 -55.158027 8.066103 -54.961197 6.042925 -54.724628 4.017455 -54.448214 1.990483 -54.131867 -0.037199 -53.775515 -2.064799 -53.379100 -4.091520 -52.942582 -6.116566 -52.465936 -8.139137 -51.949152 -10.158435 -51.392237 -12.173659 -50.795215 -14.184008 -50.158124 -16.188682 -49.481018 -18.186881 -48.763970 -20.177804 -48.007064 -22.160654 -47.210405 -24.134631 -46.374112 -26.098941 -45.498318 -28.052789 -44.583174 -29.995382 -43.628848 -31.925932 -42.635520 -33.843652 -41.603390 -35.747758 -40.532670 -37.637470 -39.423591 -39.512011 -38.276396 -41.370610 -37.091347 -43.212498 -35.868719 -45.036913 -34.608804 -46.843096 -33.311907 -48.630294 -31.978350 -50.397761 -30.608469 -52.144754 -29.202616 -53.870539 -27.761157 -55.574387 -26.284472 -57.255576 -24.772956 -58.913392 -23.227019 -60.547127 -21.647085 -62.156083 -20.033592 -63.739566 -18.386990 -65.296895 -16.707747 -66.827393 -14.996341 -68.330396 -13.253263 -69.805246 -11.479021 -71.251295 -9.674133 -72.667906 -7.839130 -74.054450 -5.974557 -75.410309 -4.080970 -76.734877 -2.158939 -78.027555 -0.209044 -79.287757 1.768120 -80.514909 3.771951 -81.708448 5.801831 -82.867820 7.857135 -83.992485 9.937222 -85.081916 12.041446 -86.135597 14.169146 -87.153024 16.319653 -88.133706 18.492288 -89.077165 20.686361 -89.982936 22.901174 -90.850569 25.136019 -91.679624 27.390179 -92.469678 29.662929 -93.220319 31.953535 -93.931152 34.261255 -94.601793 36.585339 -95.231876 38.925030 -95.821045 41.279564 -96.368963 43.648168 -96.875304 46.030065 -97.339761 48.424470 -97.762038 50.830592 -98.141857 53.247635 -98.478955 55.674796 -98.773082 58.111269 -99.024007 60.556242 -99.231512 63.008897 -99.395396 65.468413 -99.515474 67.933967 -99.591576 70.404729 -99.623549 72.879868 -99.611256 75.358548 -99.554574 77.839932 -99.453399 80.323181 -99.307643 82.807452 -99.117233 85.291902 -98.882113 87.775685 -98.602242 90.257956 -98.277599 92.737867 -97.908175 95.214571 -97.493981 97.687221 -97.035042 100.154970 -96.531402 102.616971 -95.983119 105.072377 -95.390268 107.520346 -94.752942 109.960032 -94.071249 112.390596 -93.345314 114.811197 -92.575277 117.221000 -91.761297 119.619171 -90.903546 122.004878 -90.002215 124.377295 -89.057510 126.735599 -88.069653 129.078969 -87.038882 131.406591 -85.965451 133.717655 -84.849630 136.011355 -83.691705 138.286891 -82.491977 140.543469 -81.250763 142.780302 -79.968396 144.996606 -78.645222 147.191606 -77.281605 149.364533 -75.877923 151.514627 -74.434569 153.641133 -72.951950 155.743304 -71.430489 157.820402 -69.870623 159.871697 -68.272802 161.896469 -66.637492 163.894003 -64.965173 165.863597 -63.256338 167.804557 -61.511493 169.716199 -59.731160 171.597847 -57.915871 173.448839 -56.066173 175.268519 -54.182626 177.056246 -52.265803 178.811387 -50.316287 180.533321 -48.334677 182.221439 -46.321581 183.875143 -44.277619 185.493848 -42.203426 187.076980 -40.099643 188.623978 -37.966927 190.134292 -35.805942 191.607388 -33.617366 193.042741 -31.401884 194.439844 -29.160195 195.798199 -26.893004 197.117323 -24.601027 198.396748 -22.284992 199.636019 -19.945631 200.834696 -17.583689 201.992351 -15.199917 203.108572 -12.795075 204.182963 -10.369932 205.215141 -7.925264 206.204737 -5.461852 207.151401 -2.980488 208.054794 -0.481968 208.914594 2.032905 209.730494 4.563321 210.502205 7.108464 211.229451 9.667515 211.911972 12.239646 212.549524 14.824027 213.141882 17.419822 213.688832 20.026192 214.190180 22.642292 214.645747 25.267274 215.055370 27.900289 215.418903 30.540481 215.736217 33.186995 216.007198 35.838971 216.231748 38.495547 216.409789 41.155862 216.541256 43.819052 216.626103 46.484249 216.664299 49.150589 216.655831 51.817206 216.600701 54.483231 216.498929 57.147800 216.350552 59.810046 216.155623 62.469104 215.914211 65.124111 215.626402 67.774204 215.292300 70.418522 214.912023 73.056208 214.485707 75.686406 214.013505 78.308263 213.495584 80.920930 212.932131 83.523559 212.323345 86.115308 211.669445 88.695340 210.970663 91.262819 210.227248 93.816918 209.439466 96.356810 208.607598 98.881679 207.731941 101.390710 206.812805 103.883096 205.850520 106.358036 204.845427 108.814736 203.797886 111.252408 202.708268 113.670272 201.576962 116.067555 200.404370 118.443492 199.190910 120.797325 197.937014 123.128306 196.643127 125.435694 195.309710 127.718758 193.937235 129.976776 192.526192 132.209034 191.077080 134.414831 189.590416 136.593472 188.066725 138.744275 186.506549 140.866566 184.910440 142.959685 183.278966 145.022980 181.612703 147.055812 179.912242 149.057552 178.178185 151.027584 176.411145 152.965302 174.611747 154.870115 172.780628 156.741442 170.918434 158.578716 169.025823 160.381381 167.103462 162.148895 165.152030 163.880730 163.172214 165.576370 161.164713 167.235313 159.130232 168.857072 157.069488 170.441170 154.983205 171.987149 152.872116 173.494563 150.736963 174.962979 148.578494 176.391981 146.397467 177.781166 144.194646 179.130148 141.970801 180.438552 139.726712 181.706023 137.463161 182.932218 135.180940 184.116810 132.880846 185.259488 130.563679 186.359956 128.230247 187.417934 125.881363 188.433159 123.517842 189.405381 121.140506 190.334369 118.750179 191.219906 116.347691 192.061791 113.933872 192.859842 111.509558 193.613890 109.075586 194.323784 106.632797 194.989388 104.182031 195.610583 101.724134 196.187269 99.259949 196.719357 96.790323 197.206779 94.316104 197.649482 91.838138 198.047430 89.357272 198.400601 86.874355 198.708993 84.390232 198.972619 81.905749 199.191507 79.421752 199.365703 76.939083 199.495269 74.458583 199.580284 71.981091 199.620843 69.507445 199.617056 67.038477 199.569050 64.575019 199.476969 62.117897 199.340971 59.667936 199.161233 57.225954 198.937945 54.792767 198.671315 52.369185 198.361564 49.956013 198.008932 47.554052 197.613672 45.164095 197.176053 42.786933 196.696360 40.423345 196.174892 38.074110 195.611964 35.739995 195.007906 33.421763 194.363062 31.120168 193.677790 28.835957 192.952464 26.569870 192.187472 24.322637 191.383215 22.094980 190.540108 19.887613 189.658583 17.701240 188.739080 15.536557 187.782057 13.394250 186.787983 11.274993 185.757341 9.179454 184.690626 7.108287 183.588347 5.062137 182.451023 3.041639 181.279188 1.047416 180.073385 -0.919920 178.834172 -2.859770 177.562116 -4.771544 176.257796 -6.654666 174.921802 -8.508571 173.554735 -10.332706 172.157206 -12.126532 170.729838 -13.889523 169.273262 -15.621163 167.788119 -17.320953 166.275060 -18.988404 164.734747 -20.623042 163.167847 -22.224407 161.575039 -23.792052 159.957010 -25.325544 158.314453 -26.824465 156.648072 -28.288411 154.958576 -29.716990 153.246683 -31.109829 151.513116 -32.466566 149.758607 -33.786856 147.983893 -35.070368 146.189718 -36.316785 144.376831 -37.525806 142.545986 -38.697147 140.697944 -39.830538 138.833470 -40.925722 136.953333 -41.982462 135.058308 -43.000534 133.149170 -43.979728 131.226703 -44.919854 129.291691 -45.820734 127.344922 -46.682209 125.387185 -47.504132 123.419275 -48.286376 121.441985 -49.028827 119.456113 -49.731388 117.462457 -50.393978 115.461815 -51.016532 113.454989 -51.599002 111.442778 -52.141353 109.425983 -52.643569 107.405404 -53.105650 105.381843 -53.527609 103.356097 -53.909478 101.328965 -54.251303 99.301243 -54.553147 97.273727 -54.815089 95.247209 -55.037223 93.222480 -55.219658 91.200327 -55.362520 89.181534 -55.465950 87.166885 -55.530106 85.157155 -55.555158 83.153119 -55.541295 81.155547 -55.488718 79.165203 -55.397647 77.182847 -55.268313 75.209235 -55.100964 73.245116 -54.895862 71.291233 -54.653286 69.348325 -54.373526 67.417122 -54.056889 65.498350 -53.703695 63.592726 -53.314278 61.700960 -52.888987 59.823757 -52.428185 57.961811 -51.932246 56.115809 -51.401562 54.286432 -50.836533 52.474348 -50.237576 50.680221 -49.605120 48.904702 -48.939606 47.148435 -48.241488 45.412054 -47.511233 43.696183 -46.749318 42.001434 -45.956235 40.328413 -45.132485 38.677712 -44.278582 37.049912 -43.395051 35.445586 -42.482428 33.865293 -41.541260 32.309581 -40.572103 30.778988 -39.575526 29.274039 -38.552106 27.795247 -37.502432 26.343111 -36.427099 24.918122 -35.326714 23.520754 -34.201894 22.151470 -33.053262 20.810721 -31.881451 19.498942 -30.687102 18.216557 -29.470866 16.963977 -28.233397 15.741597 -26.975361 14.549800 -25.697430 13.388955 -24.400281 12.259416 -23.084600 11.161524 -21.751077 10.095605 -20.400410 9.061969 -19.033302 8.060915 -17.650461 7.092725 -16.252600 6.157666 -14.840438 5.255991 -13.414697 4.387939 -11.976105 3.553731 -10.525392 2.753577 -9.063292 1.987667 -7.590543 1.256180 -6.107886 0.559278 -4.616064 -0.102892 -3.115823 -0.730200 -1.607909 -1.322529 -0.093074 -1.879779 1.427934 -2.401865 2.954361 -2.888717 4.485455 -3.340281 6.020464 -3.756520 7.558634 -4.137409 9.099212 -4.482943 10.641446 -4.793128 12.184584 -5.067989 13.727875 -5.307565 15.270570 -5.511910 16.811922 -5.681094 18.351185 -5.815203 19.887617 -5.914337 21.420478 -5.978612 22.949029 -6.008159 24.472538 -6.003124 25.990273 -5.963669 27.501508 -5.889970 29.005521 -5.782218 30.501594 -5.640618 31.989015 -5.465392 33.467075 -5.256775 34.935072 -5.015015 36.392309 -4.740378 37.838095 -4.433142 39.271747 -4.093598 40.692585 -3.722053 42.099940 -3.318828 43.493146 -2.884255 44.871548 -2.418684 46.234496 -1.922473 47.581349 -1.395998 48.911475 -0.839646 50.224250 -0.253816 51.519057 0.361079 52.795290 1.004614 54.052351 1.676351 55.289653 2.375841 56.506618 3.102622 57.702676 3.856220 58.877271 4.636152 60.029854 5.441920 61.159888 6.273018 62.266847 7.128926 63.350217 8.009117 64.409493 8.913052 65.444183 9.840180 66.453807 10.789942 67.437896 11.761769 68.395993 12.755084 69.327655 13.769297 70.232449 14.803812 71.109957 15.858023 71.959773 16.931318 72.781502 18.023073 73.574766 19.132659 74.339197 20.259438 75.074442 21.402765 75.780162 22.561989 76.456031 23.736449 77.101736 24.925482 77.716979 26.128415 78.301478 27.344571 78.854962 28.573266 79.377176 29.813812 79.867879 31.065515 80.326846 32.327677 80.753864 33.599595 81.148738 34.880563 81.511285 36.169868 81.841339 37.466796 82.138747 38.770631 82.403372 40.080650 82.635094 41.396131 82.833804 42.716348 82.999412 44.040574 83.131842 45.368078 83.231033 46.698131 83.296938 48.030000 83.329529 49.362952 83.328788 50.696254 83.294718 52.029174 83.227334 53.360978 83.126666 54.690933 82.992762 56.018307 82.825682 57.342370 82.625503 58.662392 82.392318 59.977646 82.126234 61.287406 81.827373 62.590949 81.495873 63.887555 81.131887 65.176505 80.735582 66.457085 80.307140 67.728585 79.846760 68.990298 79.354652 70.241520 78.831044 71.481555 78.276178 72.709707 77.690308 73.925290 77.073705 75.127620 76.426654 76.316020 75.749454 77.489818 75.042416 78.648349 74.305867 79.790956 73.540148 80.916985 72.745612 82.025792 71.922627 83.116741 71.071574 84.189201 70.192845 85.242551 69.286849 86.276178 68.354004 87.289475 67.394743 88.281848 66.409510 89.252707 65.398763 90.201477 64.362971 91.127586 63.302614 92.030478 62.218187 92.909602 61.110191 93.764420 59.979145 94.594404 58.825573 95.399035 57.650013 96.177808 56.453014 96.930225 55.235135 97.655804 53.996943 98.354071 52.739017 99.024566 51.461947 99.666838 50.166329 100.280451 48.852771 100.864981 47.521889 101.420015 46.174307 101.945154 44.810659 102.440011 43.431586 102.904214 42.037737 103.337402 40.629770 103.739227 39.208348 104.109357 37.774143 104.447473 36.327834 104.753268 34.870104 105.026451 33.401646 105.266744 31.923155 105.473884 30.435335 105.647622 28.938894 105.787723 27.434545 105.893967 25.923006 105.966150 24.404999 106.004080 22.881251 106.007582 21.352493 105.976495 19.819458 105.910675 18.282885 105.809990 16.743512 105.674326 15.202085 105.503582 13.659347 105.297674 12.116047 105.056532 10.572934 104.780103 9.030758 104.468349 7.490271 104.121245 5.952225 103.738785 4.417374 103.320978 2.886471 102.867845 1.360268 102.379427 -0.160481 101.855778 -1.675025 101.296969 -3.182613 100.703084 -4.682497 100.074226 -6.173928 99.410510 -7.656160 98.712069 -9.128452 97.979050 -10.590062 97.211615 -12.040252 96.409944 -13.478289 95.574229 -14.903442 94.704679 -16.314985 93.801516 -17.712194 92.864981 -19.094351 91.895325 -20.460744 90.892818 -21.810665 89.857743 -23.143410 88.790397 -24.458283 87.691092 -25.754593 86.560156 -27.031655 85.397929 -28.288792 84.204766 -29.525331 82.981037 -30.740610 81.727124 -31.933971 80.443426 -33.104766 79.130351 -34.252354 77.788325 -35.376103 76.417784 -36.475388 75.019180 -37.549594 73.592975 -38.598116 72.139645 -39.620356 70.659681 -40.615727 69.153582 -41.583653 67.621862 -42.523566 66.065048 -43.434908 64.483675 -44.317135 62.878295 -45.169710 61.249466 -45.992108 59.597761 -46.783818 57.923762 -47.544337 56.228063 -48.273176 54.511267 -48.969855 52.773990 -49.633911 51.016855 -50.264889 49.240496 -50.862348 47.445557 -51.425860 45.632692 -51.955010 43.802562 -52.449396 41.955838 -52.908630 40.093199 -53.332335 38.215334 -53.720150 36.322939 -54.071728 34.416715 -54.386734 32.497376 -54.664849 30.565638 -54.905768 28.622227 -55.109198 26.667874 -55.274864 24.703317 -55.402505 22.729300 -55.491872 20.746574 -55.542733 18.755893 -55.554873 16.758017 -55.528088 14.753712 -55.462192 12.743748 -55.357013 10.728897 -55.212397 8.709939 -55.028201 6.687655 -54.804302 4.662830 -54.540590 2.636251 -54.236972 0.608709 -53.893370 -1.419004 -53.509721 -3.446091 -53.085981 -5.471757 -52.622119 -7.495203 -52.118120 -9.515630 -51.573986 -11.532239 -50.989736 -13.544228 -50.365403 -15.550796 -49.701036 -17.551145 -48.996702 -19.544472 -48.252482 -21.529980 -47.468473 -23.506870 -46.644791 -25.474346 -45.781563 -27.431612 -44.878937 -29.377876 -43.937072 -31.312348 -42.956147 -33.234240 -41.936354 -35.142767 -40.877902 -37.037148 -39.781015 -38.916606 -38.645934 -40.780366 -37.472914 -42.627661 -36.262225 -44.457724 -35.014154 -46.269796 -33.729003 -48.063123 -32.407088 -49.836955 -31.048740 -51.590550 -29.654306 -53.323169 -28.224147 -55.034084 -26.758641 -56.722568 -25.258176 -58.387907 -23.723158 -60.029389 -22.154006 -61.646313 -20.551154 -63.237984 -18.915049 -64.803718 -17.246152 -66.342835 -15.544937 -67.854668 -13.811894 -69.338556 -12.047523 -70.793849 -10.252339 -72.219905 -8.426870 -73.616094 -6.571656 -74.981794 -4.687250 -76.316394 -2.774217 -77.619294 -0.833134 -78.889904 1.135409 -80.127645 3.130812 -81.331951 5.152463 -82.502265 7.199737 -83.638044 9.272000 -84.738755 11.368606 -85.803879 13.488901 -86.832907 15.632216 -87.825346 17.797877 -88.780712 19.985197 -89.698538 22.193480 -90.578367 24.422022 -91.419757 26.670107 -92.222280 28.937015 -92.985519 31.222014 -93.709074 33.524363 -94.392558 35.843317 -95.035599 38.178119 -95.637838 40.528008 -96.198931 42.892215 -96.718550 45.269963 -97.196381 47.660469 -97.632125 50.062945 -98.025498 52.476596 -98.376231 54.900622 -98.684072 57.334217 -98.948782 59.776570 -99.170140 62.226867 -99.347940 64.684287 -99.481991 67.148008 -99.572118 69.617201 -99.618163 72.091036 -99.619984 74.568679 -99.577453 77.049293 -99.490461 79.532039 -99.358915 82.016076 -99.182735 84.500560 -98.961861 86.984647 -98.696248 89.467492 -98.385868 91.948247 -98.030708 94.426064 -97.630772 96.900098 -97.186082 99.369500 -96.696675 101.833423 -96.162605 104.291022 -95.583941 106.741451 -94.960771 109.183867 -94.293198 111.617428 -93.581340 114.041293 -92.825335 116.454627 -92.025334 118.856593 -91.181506 121.246360 -90.294035 123.623100 -89.363122 125.985989 -88.388985 128.334204 -87.371857 130.666931 -86.311986 132.983356 -85.209637 135.282674 -84.065092 137.564083 -82.878646 139.826786 -81.650611 142.069993 -80.381315 144.292920 -79.071101 146.494790 -77.720326 148.674831 -76.329364 150.832280 -74.898603 152.966381 -73.428446 155.076384 -71.919311 157.161548 -70.371629 159.221141 -68.785848 161.254439 -67.162429 163.260726 -65.501845 165.239296 -63.804587 167.189452 -62.071157 169.110506 -60.302070 171.001780 -58.497857 172.862608 -56.659059 174.692333 -54.786233 176.490307 -52.879946 178.255895 -50.940780 179.988473 -48.969327 181.687428 -46.966193 183.352159 -44.931996 184.982075 -42.867362 186.576599 -40.772934 188.135167 -38.649362 189.657225 -36.497309 191.142233 -34.317447 192.589665 -32.110461 193.999006 -29.877043 195.369756 -27.617898 196.701428 -25.333738 197.993549 -23.025287 199.245659 -20.693276 200.457313 -18.338445 201.628080 -15.961545 202.757543 -13.563331 203.845300 -11.144571 204.890965 -8.706037 205.894164 -6.248511 206.854540 -3.772779 207.771752 -1.279636 208.645471 1.230115 209.475388 3.755668 210.261205 6.296209 211.002643 8.850919 211.699437 11.418974 212.351339 13.999543 212.958116 16.591794 213.519552 19.194887 214.035446 21.807979 214.505614 24.430224 214.929888 27.060773 215.308117 29.698772 215.640166 32.343365 215.925917 34.993694 216.165266 37.648899 216.358130 40.308117 216.504438 42.970485 216.604139 45.635137 216.657197 48.301207 216.663593 50.967829 216.623325 53.634137 216.536407 56.299264 216.402871 58.962344 216.222763 61.622511 215.996148 64.278902 215.723108 66.930653 215.403739 69.576904 215.038156 72.216796 214.626490 74.849472 214.168886 77.474078 213.665509 80.089764 213.116538 82.695682 212.522169 85.290988 211.882615 87.874843 211.198103 90.446411 210.468877 93.004861 209.695198 95.549368 208.877341 98.079111 208.015599 100.593275 207.110277 103.091050 206.161700 105.571634 205.170205 108.034230 204.136145 110.478048 203.059888 112.902306 201.941818 115.306228 200.782332 117.689046 199.581844 120.050002 198.340780 122.388342 197.059583 124.703325 195.738706 126.994216 194.378620 129.260290 192.979808 131.500830 191.542768 133.715131 190.068008 135.902497 188.556053 138.062241 187.007439 140.193686 185.422716 142.296169 183.802444 144.369034 182.147199 146.411638 180.457566 148.423349 178.734145 150.403547 176.977543 152.351623 175.188384 154.266981 173.367300 156.149036 171.514933 157.997218 169.631938 159.810966 167.718981 161.589735 165.776734 163.332992 163.805885 165.040216 161.807126 166.710902 159.781161 168.344557 157.728705 169.940702 155.650477 171.498872 153.547210 173.018618 151.419641 174.499502 149.268517 175.941103 147.094593 177.343014 144.898631 178.704842 142.681399 180.026211 140.443673 181.306759 138.186236 182.546137 135.909876 183.744015 133.615388 184.900077 131.303572 186.014021 128.975233 187.085564 126.631182 188.114434 124.272235 189.100380 121.899210 190.043163 119.512932 190.942563 117.114227 191.798374 114.703927 192.610407 112.282865 193.378488 109.851878 194.102462 107.411806 194.782187 104.963490 195.417540 102.507772 196.008413 100.045498 196.554715 97.577514 197.056372 95.104666 197.513324 92.627801 197.925530 90.147767 198.292966 87.665411 198.615621 85.181581 198.893503 82.697121 199.126637 80.212877 199.315063 77.729694 199.458838 75.248412 199.558034 72.769871 199.612742 70.294909 199.623068 67.824361 199.589132 65.359057 199.511074 62.899828 199.389047 60.447497 199.223221 58.002885 199.013784 55.566808 198.760936 53.140079 198.464895 50.723504 198.125895 48.317885 197.744185 45.924019 197.320028 43.542696 196.853705 41.174700 196.345511 38.820809 195.795754 36.481795 195.204760 34.158421 194.572869 31.851445 193.900435 29.561617 193.187827 27.289677 192.435426 25.036359 191.643632 22.802389 190.812854 20.588482 189.943519 18.395346 189.036064 16.223679 188.090942 14.074171 187.108618 11.947499 186.089571 9.844333 185.034292 7.765332 183.943285 5.711145 182.817067 3.682408 181.656166 1.679748 180.461123 -0.296218 179.232491 -2.244888 177.970834 -4.165668 176.676728 -6.057978 175.350758 -7.921250 173.993523 -9.754927 172.605631 -11.558466 171.187699 -13.331335 169.740357 -15.073016 168.264243 -16.783005 166.760006 -18.460809 165.228302 -20.105949 163.669797 -21.717962 162.085168 -23.296395 160.475097 -24.840812 158.840278 -26.350790 157.181409 -27.825919 155.499198 -29.265805 153.794360 -30.670069 152.067618 -32.038344 150.319700 -33.370280 148.551342 -34.665541 146.763285 -35.923807 144.956276 -37.144772 143.131069 -38.328146 141.288423 -39.473653 139.429099 -40.581034 137.553868 -41.650045 135.663500 -42.680456 133.758773 -43.672056 131.840467 -44.624646 129.909366 -45.538046 127.966256 -46.412089 126.011926 -47.246625 124.047170 -48.041521 122.072782 -48.796658 120.089557 -49.511935 118.098294 -50.187265 116.099790 -50.822578 114.094847 -51.417820 112.084264 -51.972953 110.068843 -52.487954 108.049383 -52.962818 106.026684 -53.397555 104.001548 -53.792189 101.974771 -54.146764 99.947150 -54.461335 97.919483 -54.735978 95.892561 -54.970780 93.867176 -55.165848 91.844117 -55.321301 89.824169 -55.437275 87.808116 -55.513923 85.796735 -55.551411 83.790801 -55.549922 81.791087 -55.509654 79.798358 -55.430820 77.813375 -55.313647 75.836897 -55.158380 73.869673 -54.965274 71.912449 -54.734604 69.965965 -54.466655 68.030955 -54.161731 66.108145 -53.820145 64.198255 -53.442230 62.301999 -53.028327 60.420081 -52.578796 58.553200 -52.094008 56.702045 -51.574348 54.867299 -51.020214 53.049635 -50.432019 51.249717 -49.810186 49.468200 -49.155153 47.705732 -48.467371 45.962949 -47.747301 44.240477 -46.995418 42.538934 -46.212209 40.858927 -45.398172 39.201053 -44.553817 37.565896 -43.679666 35.954031 -42.776251 34.366022 -41.844115 32.802422 -40.883813 31.263771 -39.895908 29.750597 -38.880975 28.263418 -37.839599 26.802738 -36.772373 25.369050 -35.679902 23.962832 -34.562798 22.584553 -33.421682 21.234667 -32.257185 19.913613 -31.069946 18.621821 -29.860610 17.359703 -28.629833 16.127661 -27.378276 14.926082 -26.106609 13.755339 -24.815507 12.615791 -23.505654 11.507782 -22.177739 10.431643 -20.832457 9.387692 -19.470509 8.376228 -18.092602 7.397540 -16.699448 6.451900 -15.291763 5.539564 -13.870269 4.660777 -12.435691 3.815766 -10.988759 3.004743 -9.530206 2.227905 -8.060770 1.485435 -6.581188 0.777500 -5.092205 0.104251 -3.594564 -0.534174 -2.089013 -1.137657 -0.576301 -1.706091 0.942822 -2.239385 2.467604 -2.737467 3.997294 -3.200277 5.531138 -3.627771 7.068383 -4.019922 8.608275 -4.376717 10.150063 -4.698160 11.692994 -4.984270 13.236318 -5.235080 14.779284 -5.450640 16.321145 -5.631015 17.861155 -5.776286 19.398569 -5.886549 20.932647 -5.961914 22.462651 -6.002508 23.987845 -6.008472 25.507498 -5.979962 27.020883 -5.917151 28.527274 -5.820224 30.025954 -5.689383 31.516208 -5.524843 32.997326 -5.326835 34.468604 -5.095604 35.929344 -4.831410 37.378852 -4.534527 38.816443 -4.205241 40.241436 -3.843855 41.653158 -3.450686 43.050943 -3.026061 44.434131 -2.570325 45.802071 -2.083834 47.154121 -1.566958 48.489643 -1.020080 49.808012 -0.443595 51.108608 0.162087 52.390823 0.796546 53.654055 1.459348 54.897715 2.150048 56.121219 2.868186 57.323998 3.613295 58.505490 4.384892 59.665143 5.182485 60.802417 6.005570 61.916783 6.853632 63.007722 7.726147 64.074726 8.622577 65.117300 9.542377 66.134960 10.484991 67.127233 11.449853 68.093658 12.436386 69.033788 13.444006 69.947186 14.472120 70.833431 15.520124 71.692110 16.587407 72.522828 17.673350 73.325199 18.777325 74.098854 19.898697 74.843433 21.036824 75.558593 22.191055 76.244005 23.360734 76.899351 24.545198 77.524329 25.743776 78.118651 26.955794 78.682042 28.180569 79.214243 29.417415 79.715009 30.665640 80.184108 31.924547 80.621325 33.193434 81.026459 34.471596 81.399322 35.758323 81.739743 37.052901 82.047565 38.354614 82.322647 39.662741 82.564861 40.976561 82.774097 42.295349 82.950259 43.618377 83.093264 44.944916 83.203048 46.274236 83.279560 47.605606 83.322765 48.938293 83.332642 50.271563 83.309188 51.604684 83.252412 52.936923 83.162342 54.267546 83.039018 55.595822 82.882498 56.921019 82.692853 58.242407 82.470171 59.559259 82.214553 60.870848 81.926119 62.176450 81.605000 63.475343 81.251344 64.766809 80.865314 66.050133 80.447088 67.324602 79.996859 68.589508 79.514833 69.844148 79.001234 71.087822 78.456297 72.319835 77.880274 73.539496 77.273431 74.746121 76.636047 75.939031 75.968417 77.117553 75.270848 78.281019 74.543663 79.428769 73.787198 80.560148 73.001802 81.674511 72.187838 82.771217 71.345683 83.849635 70.475726 84.909139 69.578371 85.949114 68.654031 86.968952 67.703137 87.968054 66.726128 88.945829 65.723458 89.901697 64.695592 90.835085 63.643007 91.745433 62.566192 92.632186 61.465649 93.494805 60.341888 94.332755 59.195433 95.145518 58.026818 95.932582 56.836589 96.693447 55.625299 97.427627 54.393515 98.134644 53.141811 98.814034 51.870775 99.465344 50.580999 100.088133 49.273089 100.681972 47.947658 101.246445 46.605327 101.781149 45.246728 102.285694 43.872498 102.759701 42.483285 103.202806 41.079743 103.614658 39.662534 103.994919 38.232328 104.343266 36.789800 104.659389 35.335633 104.942991 33.870517 105.193789 32.395146 105.411517 30.910221 105.595921 29.416449 105.746761 27.914541 105.863812 26.405214 105.946866 24.889189 105.995726 23.367190 106.010213 21.839948 105.990161 20.308196 105.935419 18.772670 105.845853 17.234108 105.721342 15.693255 105.561782 14.150854 105.367083 12.607651 105.137171 11.064397 104.871987 9.521841 104.571488 7.980734 104.235646 6.441829 103.864448 4.905879 103.457898 3.373636 103.016014 1.845855 102.538830 0.323287 102.026396 -1.193315 101.478778 -2.703201 100.896056 -4.205620 100.278325 -5.699824 99.625699 -7.185067 98.938304 -8.660606 98.216282 -10.125698 97.459792 -11.579606 96.669006 -13.021594 95.844113 -14.450930 94.985316 -15.866886 94.092835 -17.268739 93.166903 -18.655769 92.207769 -20.027260 91.215696 -21.382504 90.190963 -22.720796 89.133863 -24.041438 88.044703 -25.343735 86.923806 -26.627002 85.771508 -27.890559 84.588160 -29.133732 83.374126 -30.355854 82.129786 -31.556268 80.855531 -32.734321 79.551768 -33.889370 78.218918 -35.020780 76.857411 -36.127925 75.467696 -37.210185 74.050232 -38.266954 72.605490 -39.297629 71.133955 -40.301623 69.636126 -41.278353 68.112511 -42.227249 66.563632 -43.147752 64.990023 -44.039311 63.392230 -44.901389 61.770808 -45.733456 60.126327 -46.534996 58.459366 -47.305504 56.770514 -48.044486 55.060372 -48.751460 53.329551 -49.425957 51.578673 -50.067520 49.808368 -50.675703 48.019277 -51.250074 46.212051 -51.790214 44.387347 -52.295716 42.545836 -52.766188 40.688192 -53.201250 38.815102 -53.600536 36.927259 -53.963693 35.025364 -54.290384 33.110124 -54.580284 31.182257 -54.833083 29.242485 -55.048485 27.291538 -55.226210 25.330151 -55.365990 23.359067 -55.467574 21.379033 -55.530725 19.390803 -55.555221 17.395136 -55.540856 15.392796 -55.487437 13.384550 -55.394789 11.371172 -55.262751 9.353438 -55.091177 7.332128 -54.879937 5.308027 -54.628918 3.281921 -54.338020 1.254599 -54.007161 -0.773145 -53.636275 -2.800518 -53.225309 -4.826723 -52.774229 -6.850963 -52.283015 -8.872439 -51.751665 -10.890350 -51.180190 -12.903898 -50.568620 -14.912280 -49.916999 -16.914696 -49.225387 -18.910347 -48.493862 -20.898432 -47.722516 -22.878154 -46.911458 -24.848715 -46.060811 -26.809319 -45.170718 -28.759173 -44.241333 -30.697487 -43.272829 -32.623471 -42.265395 -34.536340 -41.219234 -36.435312 -40.134564 -38.319607 -39.011622 -40.188452 -37.850658 -42.041074 -36.651938 -43.876709 -35.415742 -45.694594 -34.142369 -47.493973 -32.832128 -49.274096 -31.485349 -51.034217 -30.102371 -52.773598 -28.683552 -54.491505 -27.229263 -56.187212 -25.739890 -57.860001 -24.215833 -59.509158 -22.657508 -61.133981 -21.065342 -62.733771 -19.439780 -64.307840 -17.781277 -65.855509 -16.090304 -67.376104 -14.367346 -68.868965 -12.612898 -70.333436 -10.827473 -71.768874 -9.011593 -73.174645 -7.165794 -74.550123 -5.290626 -75.894695 -3.386649 -77.207757 -1.454437 -78.488716 0.505424 -79.736989 2.492337 -80.952006 4.505694 -82.133207 6.544874 -83.280044 8.609247 -84.391983 10.698170 -85.468498 12.810991 -86.509078 14.947047 -87.513224 17.105664 -88.480451 19.286160 -89.410285 21.487841 -90.302266 23.710007 -91.155947 25.951946 -91.970896 28.212937 -92.746692 30.492253 -93.482930 32.789156 -94.179220 35.102902 -94.835182 37.432739 -95.450456 39.777906 -96.024692 42.137636 -96.557557 44.511155 -97.048732 46.897682 -97.497913 49.296432 -97.904812 51.706610 -98.269155 54.127418 -98.590685 56.558053 -98.869159 58.997704 -99.104349 61.445560 -99.296045 63.900800 -99.444051 66.362604 -99.548187 68.830143 -99.608290 71.302590 -99.624212 73.779111 -99.595821 76.258870 -99.523003 78.741028 -99.405657 81.224745 -99.243702 83.709178 -99.037070 86.193484 -98.785712 88.676816 -98.489593 91.158328 -98.148697 93.637174 -97.763023 96.112505 -97.332585 98.583474 -96.857417 101.049234 -96.337566 103.508939 -95.773098 105.961744 -95.164094 108.406804 -94.510653 110.843276 -93.812887 113.270321 -93.070928 115.687100 -92.284924 118.092777 -91.455037 120.486520 -90.581446 122.867500 -89.664349 125.234889 -88.703955 127.587868 -87.700495 129.925616 -86.654211 132.247322 -85.565363 134.552176 -84.434227 136.839376 -83.261094 139.108124 -82.046272 141.357626 -80.790082 143.587098 -79.492864 145.795759 -78.154969 147.982837 -76.776767 150.147565 -75.358640 152.289184 -73.900987 154.406944 -72.404221 156.500100 -70.868770 158.567917 -69.295076 160.609669 -67.683594 162.624637 -66.034796 164.612112 -64.349166 166.571393 -62.627203 168.501791 -60.869417 170.402624 -59.076334 172.273222 -57.248493 174.112925 -55.386445 175.921082 -53.490754 177.697054 -51.561997 179.440214 -49.600763 181.149945 -47.607654 182.825641 -45.583284 184.466710 -43.528276 186.072570 -41.443268 187.642652 -39.328908 189.176398 -37.185855 190.673266 -35.014777 192.132723 -32.816356 193.554252 -30.591282 194.937348 -28.340254 196.281520 -26.063985 197.586290 -23.763192 198.851193 -21.438605 200.075781 -19.090962 201.259618 -16.721010 202.402282 -14.329503 203.503366 -11.917204 204.562480 -9.484884 205.579245 -7.033322 206.553300 -4.563303 207.484297 -2.075620 208.371904 0.428928 209.215806 2.949536 210.015702 5.485392 210.771305 8.035678 211.482348 10.599571 212.148575 13.176245 212.769750 15.764866 213.345651 18.364596 213.876072 20.974595 214.360824 23.594017 214.799734 26.222013 215.192646 28.857732 215.539418 31.500317 215.839928 34.148913 216.094068 36.802658 216.301747 39.460692 216.462891 42.122150 216.577442 44.786168 216.645360 47.451880 216.666621 50.118421 216.641216 52.784923 216.569155 55.450520 216.450463 58.114346 216.285184 60.775535 216.073375 63.433222 215.815113 66.086545 215.510490 68.734641 215.159614 71.376652 214.762611 74.011719 214.319623 76.638988 213.830808 79.257608 213.296339 81.866729 212.716409 84.465506 212.091223 87.053100 211.421006 89.628672 210.705995 92.191390 209.946446 94.740428 209.142631 97.274962 208.294835 99.794177 207.403360 102.297259 206.468526 104.783406 205.490663 107.251818 204.470122 109.701702 203.407265 112.132275 202.302472 114.542759 201.156134 116.932382 199.968661 119.300384 198.740475 121.646009 197.472012 123.968512 196.163724 126.267156 194.816076 128.541213 193.429546 130.789964 192.004628 133.012699 190.541826 135.208719 189.041662 137.377335 187.504666 139.517867 185.931384 141.629647 184.322374 143.712016 182.678206 145.764328 180.999462 147.785948 179.286738 149.776250 177.540638 151.734624 175.761782 153.660467 173.950797 155.553193 172.108324 157.412226 170.235014 159.237002 168.331528 161.026972 166.398537 162.781597 164.436723 164.500354 162.446778 166.182733 160.429403 167.828236 158.385307 169.436380 156.315209 171.006696 154.219838 172.538729 152.099929 174.032038 149.956227 175.486197 147.789483 176.900794 145.600457 178.275432 143.389917 179.609728 141.158634 180.903317 138.907390 182.155846 136.636972 183.366978 134.348172 184.536393 132.041788 185.663785 129.718625 186.748863 127.379490 187.791354 125.025199 188.791000 122.656569 189.747556 120.274423 190.660798 117.879586 191.530515 115.472889 192.356512 113.055164 193.138611 110.627248 193.876650 108.189979 194.570484 105.744197 195.219983 103.290746 195.825035 100.830468 196.385544 98.364211 196.901428 95.892820 197.372625 93.417143 197.799088 90.938027 198.180786 88.456318 198.517705 85.972866 198.809847 83.488514 199.057231 81.004110 199.259893 78.520498 199.417883 76.038519 199.531270 73.559014 199.600139 71.082821 199.624589 68.610776 199.604737 66.143712 199.540717 63.682459 199.432678 61.227841 199.280784 58.780681 199.085217 56.341797 198.846174 53.912003 198.563867 51.492106 198.238525 49.082911 197.870391 46.685215 197.459725 44.299811 197.006802 41.927485 196.511912 39.569017 195.975360 37.225181 195.397465 34.896743 194.778564 32.584463 194.119004 30.289091 193.419152 28.011373 192.679384 25.752045 191.900094 23.511833 191.081688 21.291458 190.224587 19.091630 189.329226 16.913050 188.396052 14.756409 187.425527 12.622390 186.418125 10.511665 185.374333 8.424896 184.294651 6.362735 183.179592 4.325822 182.029680 2.314789 180.845453 0.330254 179.627460 -1.627176 178.376260 -3.556903 177.092427 -5.458344 175.776542 -7.330926 174.429201 -9.174090 173.051007 -10.987287 171.642576 -12.769982 170.204533 -14.521653 168.737515 -16.241791 167.242164 -17.929899 165.719137 -19.585495 164.169096 -21.208110 162.592715 -22.797287 160.990674 -24.352586 159.363662 -25.873579 157.712377 -27.359852 156.037524 -28.811006 154.339815 -30.226656 152.619972 -31.606434 150.878719 -32.949982 149.116792 -34.256961 147.334928 -35.527045 145.533875 -36.759924 143.714383 -37.955302 141.877209 -39.112900 140.023114 -40.232452 138.152866 -41.313711 136.267236 -42.356441 134.366998 -43.360426 132.452933 -44.325462 130.525822 -45.251364 128.586451 -46.137960 126.635610 -46.985096 124.674089 -47.792632 122.702682 -48.560446 120.722186 -49.288429 118.733396 -49.976492 116.737112 -50.624558 114.734133 -51.232569 112.725260 -51.800481 110.711293 -52.328267 108.693032 -52.815916 106.671279 -53.263432 104.646832 -53.670836 102.620491 -54.038166 100.593053 -54.365472 98.565314 -54.652824 96.538069 -54.900307 94.512108 -55.108018 92.488223 -55.276076 90.467199 -55.404609 88.449821 -55.493767 86.436867 -55.543709 84.429115 -55.554615 82.427336 -55.526677 80.432299 -55.460103 78.444766 -55.355117 76.465497 -55.211956 74.495244 -55.030875 72.534754 -54.812139 70.584770 -54.556033 68.646025 -54.262853 66.719251 -53.932910 64.805168 -53.566530 62.904492 -53.164052 61.017931 -52.725830 59.146185 -52.252231 57.289946 -51.743637 55.449900 -51.200440 53.626722 -50.623049 51.821080 -50.011883 50.033631 -49.367378 48.265026 -48.689977 46.515904 -47.980141 44.786895 -47.238339 43.078619 -46.465055 41.391687 -45.660783 39.726699 -44.826029 38.084242 -43.961312 36.464897 -43.067160 34.869229 -42.144113 33.297795 -41.192722 31.751138 -40.213547 30.229792 -39.207160 28.734278 -38.174143 27.265103 -37.115086 25.822764 -36.030591 24.407745 -34.921266 23.020517 -33.787731 21.661538 -32.630612 20.331254 -31.450547 19.030095 -30.248179 17.758481 -29.024160 16.516816 -27.779150 15.305493 -26.513816 14.124888 -25.228831 12.975365 -23.924876 11.857273 -22.602639 10.770948 -21.262813 9.716710 -19.906097 8.694866 -18.533197 7.705708 -17.144822 6.749512 -15.741687 5.826541 -14.324513 4.937043 -12.894024 4.081249 -11.450948 3.259377 -9.996017 2.471630 -8.529967 1.718194 -7.053536 0.999241 -5.567467 0.314929 -4.072503 -0.334603 -2.569390 -0.949229 -1.058878 -1.528837 0.458284 -2.073333 1.981346 -2.582638 3.509554 -3.056689 5.042156 -3.495436 6.578400 -3.898847 8.117531 -4.266904 9.658796 -4.599607 11.201445 -4.896968 12.744725 -5.159017 14.287886 -5.385799 15.830180 -5.577374 17.370860 -5.733818 18.909182 -5.855220 20.444403 -5.941688 21.975785 -5.993343 23.502591 -6.010322 25.024088 -5.992775 26.539548 -5.940870 28.048245 -5.854789 29.549459 -5.734728 31.042474 -5.580898 32.526579 -5.393524 34.001068 -5.172849 35.465239 -4.919126 36.918400 -4.632624 38.359861 -4.313627 39.788940 -3.962433 41.204962 -3.579352 42.607258 -3.164710 43.995167 -2.718846 45.368035 -2.242112 46.725215 -1.734874 48.066070 -1.197510 49.389970 -0.630412 50.696294 -0.033985 51.984430 0.591355 53.253773 1.245176 54.503731 1.927039 55.733718 2.636487 56.943160 3.373057 58.131492 4.136269 59.298161 4.925636 60.442621 5.740656 61.564341 6.580819 62.662798 7.445602 63.737481 8.334474 64.787890 9.246890 65.813537 10.182298 66.813947 11.140135 67.788655 12.119828 68.737208 13.120796 69.659168 14.142446 70.554107 15.184181 71.421611 16.245390 72.261277 17.325457 73.072719 18.423757 73.855560 19.539657 74.609438 20.672517 75.334006 21.821689 76.028929 22.986519 76.693885 24.166346 77.328568 25.360501 77.932685 26.568312 78.505958 27.789098 79.048121 29.022174 79.558926 30.266850 80.038136 31.522430 80.485531 32.788215 80.900905 34.063499 81.284067 35.347575 81.634839 36.639729 81.953061 37.939247 82.238586 39.245410 82.491283 40.557496 82.711035 41.874780 82.897741 43.196536 83.051316 44.522036 83.171688 45.850550 83.258802 47.181346 83.312619 48.513693 83.333113 49.846857 83.320276 51.180105 83.274112 52.512705 83.194643 53.843922 83.081907 55.173025 82.935953 56.499282 82.756851 57.821962 82.544682 59.140338 82.299543 60.453682 82.021548 61.761269 81.710825 63.062377 81.367516 64.356287 80.991780 65.642282 80.583789 66.919648 80.143732 68.187678 79.671811 69.445664 79.168244 70.692906 78.633262 71.928709 78.067113 73.152379 77.470057 74.363230 76.842370 75.560582 76.184342 76.743760 75.496275 77.912093 74.778488 79.064921 74.031312 80.201585 73.255093 81.321438 72.450189 82.423838 71.616972 83.508149 70.755828 84.573744 69.867155 85.620006 68.951365 86.646324 68.008882 87.652096 67.040142 88.636728 66.045596 89.599636 65.025705 90.540247 63.980941 91.457994 62.911790 92.352322 61.818750 93.222686 60.702328 94.068552 59.563045 94.889393 58.401430 95.684697 57.218026 96.453962 56.013383 97.196694 54.788065 97.912414 53.542644 98.600654 52.277701 99.260957 50.993830 99.892878 49.691630 100.495984 48.371713 101.069855 47.034697 101.614085 45.681210 102.128277 44.311890 102.612052 42.927378 103.065039 41.528329 103.486883 40.115402 103.877243 38.689262 104.235790 37.250585 104.562210 35.800052 104.856202 34.338348 105.117479 32.866167 105.345769 31.384209 105.540814 29.893178 105.702370 28.393785 105.830208 26.886743 105.924113 25.372772 105.983885 23.852598 106.009340 22.326947 106.000306 20.796551 105.956629 19.262147 105.878170 17.724472 105.764802 16.184268 105.616417 14.642278 105.432919 13.099250 105.214231 11.555931 104.960287 10.013071 104.671041 8.471421 104.346459 6.931733 103.986523 5.394760 103.591232 3.861254 103.160600 2.331970 102.694656 0.807660 102.193444 -0.710924 101.657025 -2.223031 101.085475 -3.727909 100.478885 -5.224811 99.837361 -6.712989 99.161026 -8.191700 98.450017 -9.660200 97.704488 -11.117751 96.924606 -12.563615 96.110556 -13.997060 95.262536 -15.417357 94.380760 -16.823781 93.465457 -18.215610 92.516871 -19.592128 91.535260 -20.952624 90.520899 -22.296392 89.474076 -23.622731 88.395094 -24.930946 87.284271 -26.220349 86.141938 -27.490258 84.968441 -28.739996 83.764141 -29.968895 82.529412 -31.176295 81.264643 -32.361541 79.970234 -33.523987 78.646602 -34.662995 77.294176 -35.777936 75.913397 -36.868190 74.504721 -37.933144 73.068616 -38.972196 71.605562 -39.984751 70.116054 -40.970228 68.600596 -41.928052 67.059707 -42.857659 65.493917 -43.758497 63.903767 -44.630023 62.289811 -45.471706 60.652613 -46.283025 58.992748 -47.063472 57.310805 -47.812549 55.607378 -48.529770 53.883078 -49.214662 52.138520 -49.866764 50.374334 -50.485627 48.591157 -51.070815 46.789636 -51.621903 44.970428 -52.138482 43.134197 -52.620154 41.281618 -53.066535 39.413374 -53.477256 37.530154 -53.851959 35.632658 -54.190301 33.721592 -54.491954 31.797669 -54.756604 29.861610 -54.983949 27.914143 -55.173705 25.956001 -55.325599 23.987925 -55.439376 22.010660 -55.514794 20.024959 -55.551627 18.031578 -55.549661 16.031281 -55.508702 14.024832 -55.428568 12.013005 -55.309093 9.996574 -55.150128 7.976318 -54.951536 5.953021 -54.713199 3.927467 -54.435013 1.900447 -54.116892 -0.127248 -53.758761 -2.154826 -53.360567 -4.181490 -52.922267 -6.206442 -52.443838 -8.228885 -51.925272 -10.248019 -51.366576 -12.263043 -50.767773 -14.273158 -50.128904 -16.277561 -49.450023 -18.275454 -48.731202 -20.266036 -47.972529 -22.248508 -47.174107 -24.222073 -46.336057 -26.185935 -45.458512 -28.139300 -44.541625 -30.081375 -43.585562 -32.011372 -42.590507 -33.928504 -41.556658 -35.831987 -40.484230 -37.721042 -39.373453 -39.594891 -38.224572 -41.452764 -37.037848 -43.293893 -35.813558 -45.117514 -34.551994 -46.922870 -33.253462 -48.709208 -31.918285 -50.475781 -30.546799 -52.221848 -29.139357 -53.946674 -27.696325 -55.649531 -26.218084 -57.329697 -24.705031 -58.986459 -23.157576 -60.619108 -21.576142 -62.226947 -19.961169 -63.809284 -18.313108 -65.365435 -16.632426 -66.894727 -14.919603 -68.396493 -13.175131 -69.870078 -11.399516 -71.314833 -9.593279 -72.730122 -7.756952 -74.115316 -5.891078 -75.469799 -3.996216 -76.792963 -2.072935 -78.084211 -0.121817 -79.342958 1.856545 -80.568629 3.861545 -81.760662 5.892568 -82.918504 7.948986 -84.041616 10.030159 -85.129470 12.135439 -86.181552 14.264167 -87.197357 16.415671 -88.176396 18.589272 -89.118191 20.784281 -90.022278 22.999999 -90.888207 25.235717 -91.715539 27.490718 -92.503851 29.764276 -93.252733 32.055658 -93.961789 34.364121 -94.630637 36.688914 -95.258910 39.029281 -95.846255 41.384456 -96.392333 43.753667 -96.896821 46.136136 -97.359410 48.531078 -97.779808 50.937702 -98.157736 53.355211 -98.492930 55.782803 -98.785144 58.219671 -99.034145 60.665002 -99.239717 63.117979 -99.401659 65.577781 -99.519788 68.043584 -99.593934 70.514558 -99.623943 72.989872 -99.609681 75.468690 -99.551026 77.950175 -99.447873 80.433487 -99.300136 82.917784 -99.107741 85.402222 -98.870634 87.885956 -98.588776 90.368139 -98.262144 92.847926 -97.890731 95.324469 -97.474550 97.796919 -97.013625 100.264431 -96.508001 102.726156 -95.957737 105.181251 -95.362909 107.628869 -94.723610 110.068168 -94.039950 112.498307 -93.312053 114.918447 -92.540061 117.327751 -91.724133 119.725386 -90.864443 122.110520 -89.961182 124.482328 -89.014556 126.839986 -88.024788 129.182674 -86.992117 131.509578 -85.916797 133.819887 -84.799101 136.112798 -83.639313 138.387509 -82.437736 140.643227 -81.194687 142.879164 -79.910500 145.094539 -78.585522 147.288575 -77.220118 149.460505 -75.814666 151.609567 -74.369559 153.735007 -72.885207 155.836081 -71.362031 157.912048 -69.800469 159.962181 -68.200973 161.985758 -66.564010 163.982067 -64.890059 165.950404 -63.179614 167.890076 -61.433182 169.800400 -59.651284 171.680701 -57.834456 173.530316 -55.983243 175.348591 -54.098206 177.134884 -52.179918 178.888563 -50.228965 180.609008 -48.245943 182.295611 -46.231463 183.947773 -44.186146 185.564911 -42.110624 187.146450 -40.005543 188.691830 -37.871557 190.200503 -35.709332 191.671933 -33.519547 193.105599 -31.302886 194.500991 -29.060049 195.857614 -26.791742 197.174985 -24.498682 198.452637 -22.181595 199.690115 -19.841216 200.886978 -17.478288 202.042802 -15.093564 203.157174 -12.687805 204.229698 -10.261778 205.259993 -7.816261 206.247690 -5.352035 207.192439 -2.869892 208.093903 -0.370629 208.951760 2.144951 209.765704 4.676038 210.535446 7.221817 211.260711 9.781466 211.941240 12.354159 212.576790 14.939065 213.167135 17.535347 213.712065 20.142167 214.211383 22.758679 214.664913 25.384037 215.072493 28.017388 215.433976 30.657879 215.749234 33.304654 216.018155 35.956852 216.240642 38.613613 216.416616 41.274074 216.546014 43.937371 216.628789 46.602638 216.664913 49.269009 216.654373 51.935617 216.597171 54.601596 216.493329 57.266080 216.342883 59.928203 216.145888 62.587100 215.902414 65.241906 215.612547 67.891761 215.276391 70.535803 214.894067 73.173175 214.465710 75.803021 213.991474 78.424487 213.471527 81.036726 212.906056 83.638890 212.295263 86.230137 211.639364 88.809628 210.938594 91.376531 210.193204 93.930016 209.403458 96.469259 208.569639 98.993442 207.692044 101.501750 206.770985 103.993379 205.806792 106.467526 204.799806 108.923398 203.750388 111.360207 202.658910 113.777173 201.525762 116.173524 200.351347 118.548495 199.136082 120.901329 197.880401 123.231278 196.584748 125.537601 195.249586 127.819568 193.875389 130.076457 192.462644 132.307556 191.011854 134.512161 189.523533 136.689580 187.998211 138.839131 186.436427 140.960141 184.838736 143.051949 183.205705 145.113905 181.537910 147.145369 179.835945 149.145714 178.100410 151.114324 176.331920 153.050594 174.531100 154.953932 172.698587 156.823759 170.835028 158.659507 168.941081 160.460622 167.017415 162.226563 165.064708 163.956802 163.083648 165.650823 161.074933 167.308125 159.039271 168.928220 156.977377 170.510636 154.889977 172.054912 152.777803 173.560603 150.641599 175.027277 148.482112 176.454520 146.300101 177.841928 144.096330 179.189115 141.871570 180.495709 139.626599 181.761354 137.362203 182.985708 135.079171 184.168445 132.778302 185.309255 130.460396 186.407842 128.126260 187.463927 125.776709 188.477247 123.412557 189.447554 121.034626 190.374617 118.643742 191.258220 116.240733 192.098162 113.826430 192.894263 111.401669 193.646353 108.967288 194.354282 106.524127 195.017917 104.073026 195.637138 101.614832 196.211844 99.150387 196.741951 96.680540 197.227388 94.206136 197.668104 91.728023 198.064063 89.247048 198.415246 86.764059 198.721650 84.279903 198.983288 81.795424 199.200190 79.311468 199.372403 76.828877 199.499989 74.348493 199.583028 71.871154 199.621615 69.397698 199.615861 66.928957 199.565895 64.465763 199.471860 62.008942 199.333916 59.559317 199.152240 57.117709 198.927023 54.684931 198.658473 52.261794 198.346813 49.849103 197.992282 47.447658 197.595135 45.058254 197.155641 42.681677 196.674087 40.318711 196.150771 37.970130 195.586009 35.636705 194.980133 33.319195 194.333485 31.018357 193.646427 28.734935 192.919331 26.469670 192.152587 24.223291 191.346595 21.996520 190.501774 19.790070 189.618552 17.604646 188.697373 15.440942 187.738695 13.299644 186.742987 11.181427 185.710732 9.086956 184.642427 7.016886 183.538580 4.971862 182.399713 2.952518 181.226357 0.959476 180.019059 -1.006653 178.778375 -2.945268 177.504874 -4.855782 176.199135 -6.737618 174.861748 -8.590212 173.493315 -10.413013 172.094448 -12.205481 170.665770 -13.967090 169.207911 -15.697327 167.721515 -17.395691 166.207232 -19.061694 164.665723 -20.694865 163.097659 -22.294742 161.503716 -23.860879 159.884583 -25.392845 158.240953 -26.890221 156.573530 -28.352604 154.883025 -29.779604 153.170153 -31.170848 151.435641 -32.525974 149.680219 -33.844637 147.904625 -35.126508 146.109603 -36.371270 144.295902 -37.578625 142.464278 -38.748286 140.615490 -39.879985 138.750304 -40.973467 136.869490 -42.028495 134.973821 -43.044844 133.064075 -44.022307 131.141034 -44.960694 129.205483 -45.859828 127.258210 -46.719549 125.300004 -47.539713 123.331661 -48.320192 121.353973 -49.060873 119.367738 -49.761661 117.373755 -50.422474 115.372822 -51.043249 113.365739 -51.623938 111.353308 -52.164507 109.336328 -52.664941 107.315600 -53.125239 105.291924 -53.545417 103.266100 -53.925507 101.238925 -54.265555 99.211195 -54.565626 97.183707 -54.825797 95.157251 -55.046166 93.132620 -55.226840 91.110599 -55.367948 89.091975 -55.469631 87.077527 -55.532047 85.068034 -55.555367 83.064269 -55.539780 81.067001 -55.485489 79.076996 -55.392713 77.095012 -55.261686 75.121806 -55.092654 73.158125 -54.885883 71.204715 -54.641649 69.262310 -54.360245 67.331644 -54.041977 65.413441 -53.687167 63.508417 -53.296150 61.617284 -52.869275 59.740743 -52.406904 57.879490 -51.909414 56.034213 -51.377196 54.205589 -50.810651 52.394289 -50.210198 50.600974 -49.576264 48.826297 -48.909293 47.070900 -48.209738 45.335416 -47.478066 43.620470 -46.714757 41.926674 -45.920301 40.254631 -45.095201 38.604934 -44.239971 36.978165 -43.355137 35.374894 -42.441235 33.795681 -41.498811 32.241074 -40.528425 30.711609 -39.530644 29.207810 -38.506045 27.730191 -37.455218 26.279251 -36.378760 24.855478 -35.277277 23.459348 -34.151386 22.091322 -33.001711 20.751849 -31.828886 19.441367 -30.633551 18.160297 -29.416358 16.909050 -28.177962 15.688020 -26.919028 14.497590 -25.640229 13.338128 -24.342243 12.209988 -23.025754 11.113508 -21.691455 10.049016 -20.340043 9.016821 -18.972221 8.017221 -17.588698 7.050496 -16.190187 6.116915 -14.777407 5.216728 -13.351080 4.350174 -11.911934 3.517474 -10.460699 2.718836 -8.998111 1.954452 -7.524906 1.224497 -6.041826 0.529135 -4.549615 -0.131490 -3.049017 -0.757247 -1.540780 -1.348020 -0.025655 -1.903710 1.495609 -2.424233 3.022260 -2.909519 4.553544 -3.359515 6.088710 -3.774184 7.627002 -4.153504 9.167670 -4.497467 10.709960 -4.806084 12.253120 -5.079377 13.796401 -5.317387 15.339052 -5.520169 16.880327 -5.687793 18.419481 -5.820347 19.955770 -5.917930 21.488454 -5.980660 23.016797 -6.008668 24.540065 -6.002101 26.057527 -5.961122 27.568456 -5.885906 29.072132 -5.776646 30.567836 -5.633549 32.054856 -5.456835 33.532484 -5.246740 35.000018 -5.003515 36.456761 -4.727424 37.902023 -4.418746 39.335120 -4.077775 40.755374 -3.704816 42.162114 -3.300192 43.554677 -2.864235 44.932406 -2.397295 46.294653 -1.899733 47.640777 -1.371923 48.970146 -0.814253 50.282135 -0.227123 51.576130 0.389053 52.851524 1.033849 54.107721 1.706829 55.344132 2.407540 56.560180 3.135522 57.755297 3.890300 58.928926 4.671390 60.080519 5.478294 61.209539 6.310504 62.315462 7.167502 63.397772 8.048759 64.455967 8.953735 65.489554 9.881880 66.498053 10.832635 67.480998 11.805429 68.437930 12.799683 69.368408 13.814811 70.272000 14.850213 71.148286 15.905286 71.996863 16.979413 72.817336 18.071974 73.609327 19.182337 74.372470 20.309864 75.106411 21.453912 75.810812 22.613826 76.485347 23.788948 77.129706 24.978612 77.743590 26.182146 78.326717 27.398873 78.878817 28.628109 79.399637 29.869166 79.888936 31.121348 80.346488 32.383959 80.772083 33.656294 81.165525 34.937646 81.526633 36.227305 81.855240 37.524556 82.151195 38.828680 82.414361 40.138957 82.644619 41.454664 82.841861 42.775075 83.005998 44.099461 83.136953 45.427095 83.234666 46.757243 83.299093 48.089176 83.330203 49.422159 83.327983 50.755460 83.292433 52.088346 83.223569 53.420083 83.121425 54.749939 82.986045 56.077181 82.817494 57.401080 82.615847 58.720906 82.381199 60.035932 82.113657 61.345431 81.813344 62.648681 81.480398 63.944962 81.114973 65.233555 80.717236 66.513747 80.287372 67.784828 79.825578 69.046089 79.332066 70.296830 78.807065 71.536351 78.250816 72.763961 77.663576 73.978969 77.045615 75.180695 76.397219 76.368461 75.718686 77.541595 75.010331 78.699433 74.272480 79.841317 73.505473 80.966595 72.709666 82.074623 71.885427 83.164764 71.033136 84.236388 70.153187 85.288876 69.245990 86.321612 68.311962 87.333993 67.351538 88.325422 66.365163 89.295313 65.353294 90.243088 64.316400 91.168179 63.254964 92.070026 62.169479 92.948082 61.060449 93.801809 59.928391 94.630677 58.773831 95.434171 57.597308 96.211784 56.399370 96.963020 55.180576 97.687396 53.941495 98.384439 52.682707 99.053690 51.404800 99.694698 50.108373 100.307029 48.794032 100.890258 47.462395 101.443972 46.114087 101.967775 44.749740 102.461279 43.369997 102.924112 41.975507 103.355914 40.566928 103.756339 39.144925 104.125054 37.710168 104.461741 36.263336 104.766094 34.805116 105.037822 33.336197 105.276648 31.857277 105.482310 30.369059 105.654559 28.872252 105.793161 27.367568 105.897897 25.855726 105.968562 24.337449 106.004967 22.813463 106.006936 21.284499 105.974311 19.751292 105.906945 18.214578 105.804709 16.675099 105.667489 15.133598 105.495185 13.590819 105.287713 12.047512 105.045006 10.504424 104.767009 8.962307 104.453685 7.421912 104.105011 5.883992 103.720981 4.349301 103.301604 2.818590 102.846904 1.292614 102.356920 -0.227876 101.831708 -1.742127 101.271339 -3.249389 100.675899 -4.748913 100.045490 -6.239951 99.380229 -7.721758 98.680249 -9.193591 97.945698 -10.654709 97.176740 -12.104376 96.373553 -13.541856 95.536331 -14.966420 94.665283 -16.377341 93.760633 -17.773897 92.822621 -19.155370 91.851501 -20.521046 90.847542 -21.870219 89.811027 -23.202185 88.742255 -24.516248 87.641538 -25.811718 86.509205 -27.087910 85.345596 -28.344146 84.151068 -29.579755 82.925991 -30.794075 81.670747 -31.986447 80.385735 -33.156225 79.071366 -34.302768 77.728064 -35.425443 76.356267 -36.523628 74.956427 -37.596706 73.529007 -38.644073 72.074485 -39.665133 70.593349 -40.659298 69.086101 -41.625991 67.553256 -42.564647 65.995339 -43.474708 64.412889 -44.355629 62.806455 -45.206875 61.176598 -46.027921 59.523891 -46.818257 57.848916 -47.577379 56.152267 -48.304799 54.434549 -49.000040 52.696376 -49.662636 50.938373 -50.292135 49.161176 -50.888095 47.365427 -51.450090 45.551781 -51.977705 43.720900 -52.470539 41.873454 -52.928202 40.010125 -53.350321 38.131600 -53.736534 36.238575 -54.086495 34.331755 -54.399870 32.411849 -54.676339 30.479577 -54.915599 28.535665 -55.117358 26.580843 -55.281341 24.615850 -55.407287 22.641431 -55.494949 20.658335 -55.544096 18.667319 -55.554510 16.669141 -55.525993 14.664568 -55.458356 12.654370 -55.351429 10.639321 -55.205058 8.620199 -55.019102 6.597785 -54.793437 4.572865 -54.527955 2.546226 -54.222562 0.518660 -53.877183 -1.509041 -53.491755 -3.536083 -53.066233 -5.561667 -52.600589 -7.584996 -52.094807 -9.605271 -51.548892 -11.621691 -50.962861 -13.633456 -50.336749 -15.639766 -49.670606 -17.639819 -48.964498 -19.632816 -48.218509 -21.617958 -47.432736 -23.594447 -46.607295 -25.561486 -45.742314 -27.518281 -44.837942 -29.464038 -43.894339 -31.397968 -42.911683 -33.319283 -41.890169 -35.227198 -40.830005 -37.120933 -39.731417 -38.999710 -38.594646 -40.862756 -37.419947 -42.709301 -36.207592 -44.538581 -34.957868 -46.349837 -33.671077 -48.142314 -32.347537 -49.915263 -30.987579 -51.667942 -29.591551 -53.399613 -28.159815 -55.109547 -26.692747 -56.797019 -25.190739 -58.461313 -23.654196 -60.101719 -22.083539 -61.717536 -20.479200 -63.308071 -18.841629 -64.872636 -17.171286 -66.410556 -15.468648 -67.921162 -13.734203 -69.403794 -11.968453 -70.857802 -10.171913 -72.282545 -8.345111 -73.677393 -6.488589 -75.041725 -4.602900 -76.374930 -2.688608 -77.676408 -0.746294 -78.945571 1.223456 -80.181840 3.220037 -81.384648 5.242839 -82.553440 7.291236 -83.687672 9.364594 -84.786814 11.462266 -85.850345 13.583597 -86.877759 15.727920 -87.868562 17.894557 -88.822271 20.082822 -89.738419 22.292020 -90.616551 24.521445 -91.456224 26.770382 -92.257010 29.038109 -93.018495 31.323893 -93.740279 33.626996 -94.421975 35.946670 -95.063211 38.282158 -95.663630 40.632700 -96.222889 42.997524 -96.740659 45.375855 -97.216627 47.766910 -97.650495 50.169899 -98.041980 52.584028 -98.390814 55.008495 -98.696744 57.442496 -98.959534 59.885220 -99.178962 62.335850 -99.354823 64.793568 -99.486926 67.257549 -99.575099 69.726966 -99.619183 72.200988 -99.619037 74.678781 -99.574534 77.159507 -99.485566 79.642329 -99.352038 82.126403 -99.173875 84.610888 -98.951015 87.094938 -98.683415 89.577707 -98.371046 92.058350 -98.013897 94.536017 -97.611974 97.009863 -97.165297 99.479040 -96.673906 101.942700 -96.137853 104.399999 -95.557211 106.850090 -94.932067 109.292130 -94.262524 111.725278 -93.548703 114.148694 -92.790741 116.561540 -91.988790 118.962982 -91.143019 121.352189 -90.253615 123.728331 -89.320779 126.090585 -88.344727 128.438130 -87.325695 130.770150 -86.263932 133.085833 -85.159704 135.384372 -84.013291 137.664967 -82.824991 139.926821 -81.595117 142.169144 -80.323997 144.391153 -79.011974 146.592070 -77.659406 148.771124 -76.266669 150.927552 -74.834150 153.060598 -73.362253 155.169514 -71.851396 157.253558 -70.302013 159.311999 -68.714551 161.344112 -67.089471 163.349184 -65.427248 165.326506 -63.728373 167.275384 -61.993348 169.195130 -60.222690 171.085067 -58.416930 172.944527 -56.576609 174.772855 -54.702285 176.569404 -52.794525 178.333540 -50.853913 180.064638 -48.881040 181.762086 -46.876514 183.425283 -44.840951 185.053639 -42.774981 186.646579 -40.679244 188.203537 -38.554394 189.723961 -36.401091 191.207311 -34.220010 192.653062 -32.011835 194.060700 -29.777260 195.429725 -27.516989 196.759651 -25.231735 198.050005 -22.922222 199.300327 -20.589181 200.510175 -18.233355 201.679116 -15.855492 202.806735 -13.456350 203.892632 -11.036695 204.936418 -8.597301 205.937723 -6.138949 206.896190 -3.662427 207.811477 -1.168530 208.683258 1.341940 209.511222 3.868176 210.295074 6.409364 211.034535 8.964684 211.729341 11.533312 212.379244 14.114418 212.984012 16.707168 213.543429 19.310723 214.057296 21.924239 214.525430 24.546872 214.947663 27.177769 215.323844 29.816079 215.653839 32.460945 215.937531 35.111509 216.174818 37.766911 216.365615 40.426287 216.509855 43.088774 216.607485 45.753507 216.658471 48.419620 216.662795 51.086247 216.620455 53.752521 216.531466 56.417575 216.395860 59.080544 216.213686 61.740562 215.985008 64.396765 215.709908 67.048291 215.388484 69.694278 215.020852 72.333867 214.607142 74.966203 214.147502 77.590431 213.642096 80.205701 213.091105 82.811165 212.494725 85.405981 211.853169 87.989308 211.166666 90.560311 210.435461 93.118159 209.659814 95.662028 208.840002 98.191096 207.976317 100.704549 207.069068 103.201578 206.118578 105.681380 205.125185 108.143158 204.089243 110.586125 203.011121 113.009496 201.891203 115.412497 200.729888 117.794361 199.527589 120.154328 198.284733 122.491647 197.001764 124.805575 195.679136 127.095379 194.317320 129.360334 192.916800 131.599724 191.478073 133.812844 190.001651 135.998998 188.488056 138.157499 186.937827 140.287672 185.351513 142.388853 183.729676 144.460388 182.072891 146.501633 180.381745 148.511958 178.656837 150.490742 176.898777 152.437378 175.108187 154.351270 173.285699 156.231833 171.431958 158.078497 169.547619 159.890704 167.633346 161.667907 165.689815 163.409574 163.717711 165.115187 161.717729 166.784238 159.690573 168.416238 157.636956 170.010706 155.557602 171.567179 153.453239 173.085208 151.324608 174.564357 149.172456 176.004204 146.997537 177.404343 144.800614 178.764383 142.582455 180.083946 140.343837 181.362673 138.085543 182.600215 135.808361 183.796243 133.513087 184.950441 131.200520 186.062508 128.871466 187.132161 126.526737 188.159131 124.167147 189.143164 121.793516 190.084026 119.406668 190.981494 117.007430 191.835365 114.596635 192.645449 112.175114 193.411575 109.743706 194.133587 107.303250 194.811344 104.854587 195.444724 102.398561 196.033620 99.936016 196.577941 97.467797 197.077613 94.994753 197.532579 92.517729 197.942797 90.037574 198.308244 87.555135 198.628911 85.071258 198.904805 82.586790 199.135953 80.102576 199.322395 77.619459 199.464188 75.138281 199.561407 72.659881 199.614142 70.185097 199.622499 67.714764 199.586601 65.249713 199.506586 62.790773 199.382611 60.338767 199.214845 57.894516 199.003475 55.458838 198.748704 53.032542 198.450751 50.616437 198.109849 48.211323 197.726247 45.817998 197.300212 43.437250 196.832024 41.069863 196.321977 38.716617 195.770382 36.378281 195.177565 34.055620 194.543866 31.749390 193.869639 29.460340 193.155255 27.189211 192.401097 24.936738 191.607563 22.703643 190.775064 20.490643 189.904026 18.298446 188.994889 16.127749 188.048105 13.979240 187.064140 11.853598 186.043473 9.751492 184.986597 7.673579 183.894015 5.620508 182.766246 3.592916 181.603817 1.591429 180.407271" fill="transparent" stroke="#ffff00" stroke-width="1.000000" stroke-opacity="1.000000" />
</pattern>
</defs>
<rect x="0.000000" y="0.000000" width="1000.000000" height="1000.000000" fill="url(#pattern12)" fill-opacity="1.000000" />
</svg>
