<svg xmlns="http://www.w3.org/2000/svg" version="1.1" width="1000.000000" height="1000.000000">
<defs>
<pattern id="pattern12" x="0.000000" y="0.000000" width="100.000000" height="100.000000"  patternUnits="userSpaceOnUse" patternContentUnit="userSpaceOnUse" >
<radialGradient id="gradient12">
<stop offset="0%" stop-color="#8bff95" />
<stop offset="50%" stop-color="#38b142" />
<stop offset="100%" stop-color="#177e1f" />
</radialGradient>
<polygon points="150.000000 50.000000 149.990000 51.333278 149.960004 52.666222 149.910020 53.998500 149.840064 55.329779 149.750156 56.659725 149.640324 57.988007 149.510600 59.314294 149.361023 60.638253 149.191639 61.959556 149.002497 63.277872 148.793655 64.592874 148.565175 65.904235 148.317126 67.211628 148.049581 68.514729 147.762621 69.813216 147.456333 71.106766 147.130807 72.395060 146.786140 73.677779 146.422437 74.954609 146.039805 76.225233 145.638359 77.489342 145.218219 78.746624 144.779510 79.996772 144.322362 81.239481 143.846914 82.474449 143.353305 83.701375 142.841682 84.919962 142.312200 86.129917 141.765013 87.330946 141.200286 88.522763 140.618187 89.705081 140.018886 90.877619 139.402564 92.040097 138.769402 93.192240 138.119587 94.333777 137.453313 95.464438 136.770775 96.583959 136.072176 97.692079 135.357722 98.788542 134.627623 99.873093 133.882095 100.945483 133.121357 102.005468 132.345632 103.052806 131.555149 104.087260 130.750139 105.108599 129.930838 106.116594 129.097487 107.111022 128.250328 108.091664 127.389609 109.058305 126.515581 110.010735 125.628499 110.948751 124.728621 111.872150 123.816207 112.780739 122.891524 113.674326 121.954839 114.552727 121.006422 115.415761 120.046548 116.263253 119.075494 117.095033 118.093539 117.910935 117.100966 118.710801 116.098059 119.494476 115.085107 120.261811 114.062398 121.012662 113.030224 121.746891 111.988881 122.464367 110.938664 123.164960 109.879871 123.848551 108.812803 124.515022 107.737762 125.164263 106.655051 125.796170 105.564974 126.410643 104.467839 127.007590 103.363953 127.586921 102.253625 128.148556 101.137165 128.692417 100.014884 129.218434 98.887093 129.726544 97.754106 130.216685 96.616236 130.688806 95.473797 131.142859 94.327101 131.578803 93.176466 131.996601 92.022203 132.396224 90.864630 132.777648 89.704060 133.140854 88.540808 133.485830 87.375188 133.812568 86.207515 134.121069 85.038102 134.411337 83.867261 134.683382 82.695306 134.937220 81.522548 135.172875 80.349297 135.390372 79.175863 135.589747 78.002554 135.771037 76.829677 135.934287 75.657539 136.079548 74.486444 136.206875 73.316695 136.316330 72.148593 136.407980 70.982437 136.481896 69.818525 136.538156 68.657153 136.576844 67.498614 136.598048 66.343200 136.601861 65.191200 136.588382 64.042900 136.557715 62.898586 136.509969 61.758539 136.445259 60.623038 136.363704 59.492359 136.265428 58.366776 136.150560 57.246560 136.019235 56.131978 135.871590 55.023295 135.707770 53.920773 135.527922 52.824668 135.332200 51.735236 135.120760 50.652729 134.893764 49.577393 134.651378 48.509473 134.393773 47.449210 134.121124 46.396839 133.833608 45.352594 133.531409 44.316704 133.214713 43.289393 132.883711 42.270882 132.538598 41.261388 132.179572 40.261124 131.806835 39.270297 131.420591 38.289111 131.021052 37.317767 130.608427 36.356459 130.182934 35.405377 129.744791 34.464708 129.294220 33.534632 128.831446 32.615327 128.356697 31.706965 127.870203 30.809712 127.372199 29.923732 126.862920 29.049180 126.342606 28.186211 125.811496 27.334971 125.269835 26.495604 124.717868 25.668246 124.155844 24.853030 123.584011 24.050085 123.002623 23.259531 122.411932 22.481487 121.812194 21.716064 121.203666 20.963368 120.586607 20.223502 119.961276 19.496562 119.327935 18.782638 118.686846 18.081817 118.038273 17.394178 117.382481 16.719797 116.719734 16.058744 116.050300 15.411083 115.374444 14.776873 114.692435 14.156167 114.004541 13.549015 113.311030 12.955459 112.612170 12.375537 111.908230 11.809282 111.199479 11.256720 110.486185 10.717873 109.768618 10.192757 109.047044 9.681385 108.321733 9.183761 107.592951 8.699886 106.860965 8.229755 106.126041 7.773360 105.388444 7.330684 104.648439 6.901707 103.906289 6.486404 103.162256 6.084745 102.416601 5.696693 101.669584 5.322209 100.921462 4.961246 100.172494 4.613755 99.422933 4.279679 98.673034 3.958958 97.923047 3.651527 97.173223 3.357316 96.423809 3.076249 95.675051 2.808248 94.927192 2.553228 94.180473 2.311101 93.435134 2.081772 92.691409 1.865144 91.949535 1.661116 91.209740 1.469579 90.472254 1.290424 89.737303 1.123534 89.005109 0.968792 88.275892 0.826072 87.549868 0.695248 86.827252 0.576188 86.108253 0.468757 85.393079 0.372815 84.681933 0.288219 83.975016 0.214822 83.272524 0.152475 82.574652 0.101022 81.881588 0.060308 81.193518 0.030171 80.510624 0.010447 79.833085 0.000968 79.161076 0.001566 78.494765 0.012065 77.834321 0.032291 77.179905 0.062063 76.531676 0.101200 75.889787 0.149517 75.254388 0.206826 74.625625 0.272939 74.003640 0.347663 73.388568 0.430803 72.780542 0.522163 72.179691 0.621544 71.586138 0.728745 71.000000 0.843563 70.421394 0.965795 69.850429 1.095232 69.287209 1.231667 68.731836 1.374892 68.184404 1.524694 67.645005 1.680862 67.113726 1.843181 66.590647 2.011438 66.075846 2.185415 65.569394 2.364898 65.071359 2.549668 64.581802 2.739506 64.100782 2.934194 63.628350 3.133513 63.164555 3.337243 62.709439 3.545162 62.263040 3.757052 61.825392 3.972691 61.396522 4.191858 60.976455 4.414334 60.565208 4.639897 60.162796 4.868329 59.769226 5.099408 59.384504 5.332916 59.008629 5.568635 58.641594 5.806346 58.283390 6.045832 57.934000 6.286877 57.593407 6.529265 57.261584 6.772783 56.938503 7.017217 56.624129 7.262356 56.318425 7.507988 56.021347 7.753906 55.732846 7.999902 55.452872 8.245770 55.181367 8.491305 54.918270 8.736307 54.663515 8.980574 54.417032 9.223909 54.178748 9.466115 53.948583 9.706998 53.726455 9.946367 53.512276 10.184033 53.305956 10.419808 53.107400 10.653509 52.916507 10.884953 52.733176 11.113962 52.557298 11.340360 52.388764 11.563973 52.227458 11.784631 52.073263 12.002167 51.926055 12.216416 51.785710 12.427218 51.652099 12.634413 51.525088 12.837849 51.404542 13.037373 51.290322 13.232838 51.182285 13.424100 51.080287 13.611018 50.984177 13.793455 50.893805 13.971277 50.809016 14.144355 50.729653 14.312564 50.655555 14.475781 50.586561 14.633889 50.522503 14.786773 50.463216 14.934323 50.408528 15.076434 50.358267 15.213004 50.312258 15.343935 50.270325 15.469134 50.232288 15.588512 50.197966 15.701983 50.167177 15.809468 50.139735 15.910889 50.115456 16.006176 50.094151 16.095262 50.075630 16.178082 50.059703 16.254579 50.046178 16.324699 50.034861 16.388393 50.025559 16.445616 50.018076 16.496327 50.012216 16.540491 50.007781 16.578078 50.004575 16.609060 50.002397 16.633416 50.001051 16.651129 50.000336 16.662187 50.000052 16.666582 50.000000 16.664311 49.999980 16.655375 49.999792 16.639780 49.999236 16.617538 49.998112 16.588664 49.996221 16.553179 49.993364 16.511107 49.989342 16.462477 49.983957 16.407324 49.977012 16.345687 49.968311 16.277609 49.957657 16.203138 49.944857 16.122325 49.929716 16.035229 49.912042 15.941910 49.891644 15.842435 49.868333 15.736874 49.841919 15.625301 49.812216 15.507796 49.779039 15.384441 49.742205 15.255326 49.701533 15.120542 49.656841 14.980185 49.607954 14.834356 49.554695 14.683159 49.496891 14.526704 49.434372 14.365101 49.366968 14.198470 49.294513 14.026929 49.216845 13.850604 49.133801 13.669622 49.045225 13.484117 48.950959 13.294224 48.850853 13.100082 48.744755 12.901835 48.632520 12.699629 48.514005 12.493615 48.389068 12.283945 48.257574 12.070777 48.119388 11.854270 47.974380 11.634588 47.822424 11.411898 47.663396 11.186369 47.497176 10.958172 47.323650 10.727484 47.142705 10.494483 46.954233 10.259348 46.758128 10.022265 46.554292 9.783418 46.342626 9.542996 46.123040 9.301191 45.895444 9.058194 45.659755 8.814203 45.415892 8.569414 45.163780 8.324026 44.903347 8.078242 44.634527 7.832265 44.357257 7.586300 44.071478 7.340554 43.777138 7.095235 43.474186 6.850553 43.162578 6.606721 42.842274 6.363949 42.513240 6.122453 42.175443 5.882447 41.828858 5.644147 41.473463 5.407771 41.109242 5.173535 40.736184 4.941658 40.354280 4.712359 39.963528 4.485858 39.563932 4.262375 39.155498 4.042130 38.738238 3.825343 38.312170 3.612235 37.877316 3.403027 37.433701 3.197939 36.981358 2.997192 36.520323 2.801004 36.050637 2.609597 35.572347 2.423189 35.085503 2.241999 34.590162 2.066244 34.086384 1.896142 33.574235 1.731908 33.053784 1.573757 32.525109 1.421905 31.988287 1.276562 31.443404 1.137941 30.890551 1.006252 30.329819 0.881703 29.761310 0.764501 29.185126 0.654852 28.601376 0.552958 28.010172 0.459021 27.411632 0.373242 26.805878 0.295816 26.193036 0.226939 25.573238 0.166804 24.946619 0.115603 24.313319 0.073521 23.673481 0.040746 23.027255 0.017461 22.374792 0.003844 21.716251 0.000073 21.051791 0.006323 20.381579 0.022766 19.705782 0.049568 19.024575 0.086896 18.338135 0.134910 17.646641 0.193771 16.950280 0.263631 16.249239 0.344644 15.543710 0.436956 14.833890 0.540713 14.119977 0.656054 13.402174 0.783116 12.680687 0.922032 11.955726 1.072932 11.227503 1.235939 10.496233 1.411174 9.762136 1.598755 9.025433 1.798792 8.286349 2.011396 7.545112 2.236668 6.801952 2.474708 6.057102 2.725612 5.310796 2.989469 4.563275 3.266365 3.814776 3.556380 3.065545 3.859593 2.315825 4.176073 1.565863 4.505888 0.815908 4.849100 0.066212 5.205766 -0.682973 5.575938 -1.431392 5.959663 -2.178788 6.356984 -2.924905 6.767937 -3.669483 7.192555 -4.412262 7.630866 -5.152978 8.082889 -5.891371 8.548643 -6.627175 9.028139 -7.360126 9.521384 -8.089957 10.028377 -8.816403 10.549116 -9.539196 11.083591 -10.258069 11.631786 -10.972753 12.193683 -11.682980 12.769255 -12.388482 13.358472 -13.088989 13.961297 -13.784233 14.577691 -14.473946 15.207605 -15.157859 15.850988 -15.835703 16.507782 -16.507212 17.177925 -17.172117 17.861348 -17.830154 18.557979 -18.481055 19.267738 -19.124557 19.990542 -19.760394 20.726301 -20.388305 21.474921 -21.008027 22.236301 -21.619301 23.010337 -22.221867 23.796919 -22.815467 24.595930 -23.399846 25.407251 -23.974750 26.230755 -24.539926 27.066311 -25.095123 27.913785 -25.640094 28.773034 -26.174591 29.643912 -26.698370 30.526269 -27.211191 31.419949 -27.712812 32.324790 -28.202997 33.240628 -28.681512 34.167292 -29.148126 35.104606 -29.602608 36.052391 -30.044734 37.010462 -30.474281 37.978631 -30.891028 38.956703 -31.294759 39.944481 -31.685260 40.941761 -32.062322 41.948338 -32.425738 42.964000 -32.775304 43.988532 -33.110822 45.021714 -33.432096 46.063322 -33.738933 47.113129 -34.031146 48.170904 -34.308551 49.236411 -34.570967 50.309411 -34.818219 51.389661 -35.050135 52.476914 -35.266548 53.570921 -35.467294 54.671427 -35.652215 55.778176 -35.821157 56.890907 -35.973970 58.009357 -36.110509 59.133260 -36.230634 60.262345 -36.334209 61.396340 -36.421104 62.534970 -36.491193 63.677955 -36.544355 64.825016 -36.580474 65.975868 -36.599439 67.130226 -36.601145 68.287801 -36.585492 69.448302 -36.552383 70.611437 -36.501729 71.776911 -36.433446 72.944425 -36.347453 74.113683 -36.243677 75.284382 -36.122049 76.456221 -35.982507 77.628895 -35.824992 78.802099 -35.649454 79.975527 -35.455844 81.148870 -35.244123 82.321819 -35.014256 83.494064 -34.766212 84.665293 -34.499969 85.835195 -34.215507 87.003456 -33.912815 88.169764 -33.591886 89.333804 -33.252718 90.495263 -32.895318 91.653825 -32.519696 92.809176 -32.125867 93.961001 -31.713856 95.108986 -31.283688 96.252815 -30.835399 97.392175 -30.369029 98.526751 -29.884622 99.656231 -29.382229 100.780301 -28.861910 101.898649 -28.323725 103.010964 -27.767743 104.116935 -27.194040 105.216254 -26.602696 106.308612 -25.993796 107.393703 -25.367431 108.471221 -24.723700 109.540861 -24.062705 110.602322 -23.384556 111.655303 -22.689365 112.699506 -21.977254 113.734632 -21.248347 114.760387 -20.502776 115.776479 -19.740676 116.782617 -18.962190 117.778513 -18.167465 118.763881 -17.356654 119.738438 -16.529914 120.701903 -15.687409 121.653999 -14.829306 122.594451 -13.955781 123.522986 -13.067011 124.439337 -12.163180 125.343236 -11.244477 126.234423 -10.311096 127.112636 -9.363235 127.977622 -8.401098 128.829127 -7.424893 129.666904 -6.434833 130.490706 -5.431136 131.300294 -4.414023 132.095430 -3.383721 132.875881 -2.340461 133.641417 -1.284479 134.391814 -0.216013 135.126851 0.864691 135.846311 1.957386 136.549983 3.061821 137.237659 4.177739 137.909135 5.304880 138.564214 6.442981 139.202701 7.591775 139.824408 8.750991 140.429149 9.920355 141.016747 11.099588 141.587026 12.288410 142.139818 13.486536 142.674957 14.693679 143.192285 15.909549 143.691648 17.133851 144.172897 18.366289 144.635889 19.606565 145.080486 20.854377 145.506555 22.109420 145.913968 23.371387 146.302606 24.639970 146.672351 25.914857 147.023092 27.195735 147.354726 28.482287 147.667153 29.774198 147.960279 31.071147 148.234017 32.372813 148.488284 33.678874 148.723005 34.989006 148.938110 36.302884 149.133533 37.620180 149.309217 38.940567 149.465108 40.263716 149.601160 41.589297 149.717332 42.916980 149.813590 44.246432 149.889904 45.577322 149.946251 46.909318 149.982616 48.242086 149.998985 49.575294" fill="transparent" stroke="#ffff00" stroke-width="1.000000" stroke-opacity="1.000000" />
</pattern>
</defs>
<rect x="0.000000" y="0.000000" width="1000.000000" height="1000.000000" fill="url(#pattern12)" fill-opacity="1.000000" />
</svg>
