<svg xmlns="http://www.w3.org/2000/svg" version="1.1" width="1000.000000" height="1000.000000">
<rect x="0.000000" y="0.000000" width="1000.000000" height="1000.000000" fill="#293D56" fill-opacity="1.000000" />
<defs>
<pattern id="pattern8" x="0.000000" y="0.000000" width="0.150000" height="0.150000">
<linearGradient id="gradient8_1" x1="0.000000" x2="0.000000" y1="0.000000" y2="1.000000">
<stop offset="0%" stop-color="#8bff95" />
<stop offset="50%" stop-color="#38b142" />
<stop offset="100%" stop-color="#177e1f" />
</linearGradient>
<linearGradient id="gradient8_2" x1="0.000000" x2="0.000000" y1="0.000000" y2="1.000000">
<stop offset="0%" stop-color="#8b97ff" />
<stop offset="50%" stop-color="#4e5bd1" />
<stop offset="100%" stop-color="#2834a3" />
</linearGradient>
<rect x="0.000000" y="0.000000" width="20.000000" height="20.000000" fill="url(#gradient8_1)" fill-opacity="1.000000" />
<rect x="0.000000" y="20.000000" width="20.000000" height="20.000000" fill="url(#gradient8_2)" fill-opacity="1.000000" />
<rect x="0.000000" y="40.000000" width="20.000000" height="20.000000" fill="url(#gradient8_1)" fill-opacity="1.000000" />
<rect x="0.000000" y="60.000000" width="20.000000" height="20.000000" fill="url(#gradient8_2)" fill-opacity="1.000000" />
<rect x="0.000000" y="80.000000" width="20.000000" height="20.000000" fill="url(#gradient8_1)" fill-opacity="1.000000" />
<rect x="20.000000" y="0.000000" width="20.000000" height="20.000000" fill="url(#gradient8_2)" fill-opacity="1.000000" />
<rect x="20.000000" y="20.000000" width="20.000000" height="20.000000" fill="url(#gradient8_2)" fill-opacity="1.000000" />
<rect x="20.000000" y="40.000000" width="20.000000" height="20.000000" fill="url(#gradient8_2)" fill-opacity="1.000000" />
<rect x="20.000000" y="60.000000" width="20.000000" height="20.000000" fill="url(#gradient8_2)" fill-opacity="1.000000" />
<rect x="20.000000" y="80.000000" width="20.000000" height="20.000000" fill="url(#gradient8_2)" fill-opacity="1.000000" />
<rect x="40.000000" y="0.000000" width="20.000000" height="20.000000" fill="url(#gradient8_1)" fill-opacity="1.000000" />
<rect x="40.000000" y="20.000000" width="20.000000" height="20.000000" fill="url(#gradient8_2)" fill-opacity="1.000000" />
<rect x="40.000000" y="40.000000" width="20.000000" height="20.000000" fill="url(#gradient8_1)" fill-opacity="1.000000" />
<rect x="40.000000" y="60.000000" width="20.000000" height="20.000000" fill="url(#gradient8_2)" fill-opacity="1.000000" />
<rect x="40.000000" y="80.000000" width="20.000000" height="20.000000" fill="url(#gradient8_1)" fill-opacity="1.000000" />
<rect x="60.000000" y="0.000000" width="20.000000" height="20.000000" fill="url(#gradient8_2)" fill-opacity="1.000000" />
<rect x="60.000000" y="20.000000" width="20.000000" height="20.000000" fill="url(#gradient8_2)" fill-opacity="1.000000" />
<rect x="60.000000" y="40.000000" width="20.000000" height="20.000000" fill="url(#gradient8_2)" fill-opacity="1.000000" />
<rect x="60.000000" y="60.000000" width="20.000000" height="20.000000" fill="url(#gradient8_2)" fill-opacity="1.000000" />
<rect x="60.000000" y="80.000000" width="20.000000" height="20.000000" fill="url(#gradient8_2)" fill-opacity="1.000000" />
<rect x="80.000000" y="0.000000" width="20.000000" height="20.000000" fill="url(#gradient8_1)" fill-opacity="1.000000" />
<rect x="80.000000" y="20.000000" width="20.000000" height="20.000000" fill="url(#gradient8_2)" fill-opacity="1.000000" />
<rect x="80.000000" y="40.000000" width="20.000000" height="20.000000" fill="url(#gradient8_1)" fill-opacity="1.000000" />
<rect x="80.000000" y="60.000000" width="20.000000" height="20.000000" fill="url(#gradient8_2)" fill-opacity="1.000000" />
<rect x="80.000000" y="80.000000" width="20.000000" height="20.000000" fill="url(#gradient8_1)" fill-opacity="1.000000" />
</pattern>
</defs>
<rect x="0.000000" y="0.000000" width="1000.000000" height="1000.000000" fill="url(#pattern8)" fill-opacity="1.000000" />
</svg>
