<svg xmlns="http://www.w3.org/2000/svg" version="1.1" width="1000.000000" height="1000.000000">
<rect x="0.000000" y="0.000000" width="1000.000000" height="1000.000000" fill="#000000" fill-opacity="1.000000" />
<defs>
<pattern id="hypocycloid_pattern1" x="0.000000" y="0.000000" width="100.000000" height="100.000000"  patternUnits="userSpaceOnUse" patternContentUnit="userSpaceOnUse" >
<radialGradient id="hypocycloid_pattern1_gradient1">
<stop offset="0%" stop-color="#8bff95" />
<stop offset="50%" stop-color="#38b142" />
<stop offset="100%" stop-color="#177e1f" />
</radialGradient>
<polygon points="80.000000 50.000000 79.997000 50.399983 79.988001 50.799867 79.973006 51.199550 79.952019 51.598934 79.925047 51.997918 79.892097 52.396402 79.853180 52.794288 79.808307 53.191476 79.757492 53.587867 79.700749 53.983362 79.638096 54.377862 79.569552 54.771270 79.495138 55.163488 79.414874 55.554419 79.328786 55.943965 79.236900 56.332030 79.139242 56.718518 79.035842 57.103334 78.926731 57.486383 78.811941 57.867570 78.691508 58.246803 78.565466 58.623987 78.433853 58.999032 78.296709 59.371844 78.154074 59.742335 78.005991 60.110412 77.852505 60.475989 77.693660 60.838975 77.529504 61.199284 77.360086 61.556829 77.185456 61.911524 77.005666 62.263286 76.820769 62.612029 76.630820 62.957672 76.435876 63.300133 76.235994 63.639331 76.031232 63.975188 75.821653 64.307624 75.607317 64.636562 75.388287 64.961928 75.164629 65.283645 74.936407 65.601640 74.703690 65.915842 74.466545 66.226178 74.225042 66.532580 73.979252 66.834978 73.729246 67.133307 73.475098 67.427499 73.216883 67.717491 72.954674 68.003221 72.688550 68.284625 72.418586 68.561645 72.144862 68.834222 71.867457 69.102298 71.586452 69.365818 71.301927 69.624728 71.013965 69.878976 70.722648 70.128510 70.428062 70.373281 70.130290 70.613240 69.829418 70.848343 69.525532 71.078543 69.218719 71.303799 68.909067 71.524067 68.596664 71.739310 68.281599 71.949488 67.963961 72.154565 67.643841 72.354507 67.321329 72.549279 66.996515 72.738851 66.669492 72.923193 66.340352 73.102277 66.009186 73.276076 65.676087 73.444567 65.341149 73.607725 65.004465 73.765530 64.666128 73.917963 64.326232 74.065006 63.984871 74.206642 63.642139 74.342858 63.298130 74.473641 62.952940 74.598980 62.606661 74.718867 62.259389 74.833294 61.911218 74.942256 61.562242 75.045749 61.212556 75.143771 60.862254 75.236321 60.511431 75.323401 60.160178 75.405015 59.808592 75.481166 59.456764 75.551862 59.104789 75.617112 58.752759 75.676924 58.400766 75.731311 58.048903 75.780286 57.697262 75.823864 57.345933 75.862063 56.995008 75.894899 56.644578 75.922394 56.294731 75.944569 55.945557 75.961447 55.597146 75.973053 55.249584 75.979414 54.902960 75.980558 54.557360 75.976514 54.212870 75.967314 53.869576 75.952991 53.527562 75.933578 53.186911 75.909111 52.847708 75.879628 52.510033 75.845168 52.173968 75.805770 51.839593 75.761477 51.506989 75.712331 51.176232 75.658377 50.847400 75.599660 50.520571 75.536228 50.195819 75.468129 49.873218 75.395414 49.552842 75.318132 49.234763 75.236337 48.919052 75.150082 48.605778 75.059423 48.295011 74.964414 47.986818 74.865113 47.681265 74.761579 47.378416 74.653872 47.078337 74.542050 46.781089 74.426177 46.486733 74.306315 46.195330 74.182528 45.906938 74.054880 45.621613 73.923437 45.339412 73.788266 45.060390 73.649434 44.784598 73.507009 44.512090 73.361061 44.242914 73.211660 43.977119 73.058876 43.714754 72.902782 43.455863 72.743449 43.200491 72.580950 42.948681 72.415360 42.700474 72.246753 42.455909 72.075203 42.215025 71.900787 41.977859 71.723580 41.744446 71.543658 41.514819 71.361100 41.289010 71.175982 41.067051 70.988383 40.848969 70.798380 40.634791 70.606054 40.424545 70.411482 40.218253 70.214744 40.015939 70.015920 39.817623 69.815090 39.623325 69.612333 39.433062 69.407731 39.246850 69.201362 39.064705 68.993309 38.886638 68.783651 38.712661 68.572469 38.542785 68.359844 38.377016 68.145856 38.215362 67.930585 38.057827 67.714113 37.904415 67.496520 37.755128 67.277885 37.609966 67.058289 37.468927 66.837812 37.332008 66.616533 37.199205 66.394532 37.070512 66.171887 36.945921 65.948677 36.825423 65.724980 36.709008 65.500875 36.596663 65.276439 36.488374 65.051748 36.384127 64.826880 36.283904 64.601910 36.187687 64.376914 36.095458 64.151967 36.007195 63.927143 35.922875 63.702515 35.842474 63.478157 35.765968 63.254142 35.693330 63.030540 35.624532 62.807423 35.559543 62.584860 35.498335 62.362922 35.440874 62.141676 35.387127 61.921191 35.337060 61.701533 35.290638 61.482768 35.247822 61.264960 35.208574 61.048175 35.172856 60.832476 35.140627 60.617924 35.111844 60.404580 35.086466 60.192505 35.064447 59.981757 35.045742 59.772396 35.030307 59.564476 35.018092 59.358055 35.009051 59.153187 35.003134 58.949926 35.000290 58.748323 35.000470 58.548430 35.003620 58.350296 35.009687 58.153972 35.018619 57.959503 35.030360 57.766936 35.044855 57.576316 35.062048 57.387688 35.081882 57.201092 35.104299 57.016570 35.129241 56.834163 35.156649 56.653907 35.186463 56.475841 35.218624 56.300000 35.253069 56.126418 35.289738 55.955129 35.328570 55.786163 35.369500 55.619551 35.412468 55.455321 35.457408 55.293502 35.504258 55.134118 35.552954 54.977194 35.603431 54.822754 35.655625 54.670818 35.709469 54.521408 35.764900 54.374541 35.821852 54.230234 35.880258 54.088505 35.940054 53.949366 36.001173 53.812832 36.063549 53.678912 36.127116 53.547618 36.191807 53.418957 36.257557 53.292936 36.324300 53.169562 36.391969 53.048839 36.460499 52.930768 36.529822 52.815351 36.599875 52.702589 36.670590 52.592478 36.741904 52.485017 36.813750 52.380200 36.886063 52.278022 36.958780 52.178475 37.031835 52.081551 37.105165 51.987239 37.178707 51.895528 37.252397 51.806404 37.326172 51.719854 37.399971 51.635862 37.473731 51.554410 37.547392 51.475481 37.620892 51.399054 37.694172 51.325110 37.767173 51.253624 37.839834 51.184575 37.912099 51.117936 37.983910 51.053683 38.055210 50.991787 38.125942 50.932220 38.196053 50.874952 38.265486 50.819953 38.334189 50.767190 38.402108 50.716629 38.469192 50.668238 38.535389 50.621979 38.600650 50.577817 38.664925 50.535713 38.728165 50.495630 38.790324 50.457526 38.851355 50.421363 38.911212 50.387097 38.969852 50.354686 39.027230 50.324086 39.083305 50.295253 39.138036 50.268142 39.191383 50.242705 39.243307 50.218896 39.293769 50.196667 39.342734 50.175968 39.390167 50.156751 39.436032 50.138965 39.480297 50.122558 39.522930 50.107480 39.563901 50.093678 39.603181 50.081097 39.640740 50.069686 39.676553 50.059390 39.710595 50.050153 39.742840 50.041921 39.773267 50.034637 39.801853 50.028245 39.828578 50.022689 39.853425 50.017911 39.876374 50.013853 39.897410 50.010458 39.916518 50.007668 39.933685 50.005423 39.948898 50.003665 39.962147 50.002334 39.973423 50.001372 39.982718 50.000719 39.990025 50.000315 39.995339 50.000101 39.998656 50.000016 39.999975 50.000000 39.999293 49.999994 39.996612 49.999938 39.991934 49.999771 39.985261 49.999434 39.976599 49.998866 39.965954 49.998009 39.953332 49.996803 39.938743 49.995187 39.922197 49.993104 39.903706 49.990493 39.883283 49.987297 39.860941 49.983457 39.836698 49.978915 39.810569 49.973613 39.782573 49.967493 39.752731 49.960500 39.721062 49.952576 39.687590 49.943665 39.652339 49.933712 39.615332 49.922662 39.576598 49.910460 39.536163 49.897052 39.494056 49.882386 39.450307 49.866408 39.404948 49.849067 39.358011 49.830311 39.309530 49.810090 39.259541 49.788354 39.208079 49.765053 39.155181 49.740140 39.100887 49.713567 39.045235 49.685288 38.988267 49.655256 38.930025 49.623427 38.870551 49.589756 38.809889 49.554201 38.748084 49.516720 38.685183 49.477272 38.621233 49.435816 38.556281 49.392314 38.490377 49.346727 38.423569 49.299019 38.355911 49.249153 38.287452 49.197095 38.218245 49.142812 38.148345 49.086270 38.077805 49.027438 38.006679 48.966287 37.935025 48.902788 37.862899 48.836912 37.790357 48.768633 37.717458 48.697926 37.644261 48.624768 37.570824 48.549134 37.497208 48.471004 37.423473 48.390358 37.349679 48.307177 37.275890 48.221443 37.202166 48.133141 37.128570 48.042256 37.055166 47.948773 36.982016 47.852682 36.909185 47.753972 36.836736 47.652633 36.764734 47.548657 36.693244 47.442039 36.622331 47.332773 36.552060 47.220855 36.482497 47.106284 36.413708 46.989058 36.345757 46.869180 36.278712 46.746649 36.212639 46.621472 36.147603 46.493651 36.083671 46.363195 36.020908 46.230110 35.959382 46.094407 35.899157 45.956097 35.840301 45.815191 35.782879 45.671704 35.726957 45.525651 35.672600 45.377049 35.619873 45.225915 35.568843 45.072270 35.519572 44.916135 35.472127 44.757533 35.426571 44.596486 35.382969 44.433021 35.341382 44.267165 35.301876 44.098946 35.264511 43.928393 35.229350 43.755538 35.196456 43.580413 35.165887 43.403052 35.137706 43.223490 35.111972 43.041763 35.088745 42.857911 35.068082 42.671971 35.050041 42.483986 35.034681 42.293996 35.022056 42.102044 35.012224 41.908176 35.005238 41.712438 35.001153 41.514875 35.000022 41.315537 35.001897 41.114474 35.006830 40.911735 35.014870 40.707373 35.026069 40.501440 35.040473 40.293992 35.058131 40.085084 35.079089 39.874772 35.103393 39.663113 35.131087 39.450167 35.162214 39.235993 35.196816 39.020652 35.234935 38.804206 35.276610 38.586718 35.321879 38.368251 35.370782 38.148870 35.423352 37.928641 35.479626 37.707630 35.539638 37.485905 35.603419 37.263534 35.671000 37.040586 35.742412 36.817130 35.817684 36.593239 35.896841 36.368982 35.979909 36.144433 36.066914 35.919663 36.157878 35.694747 36.252822 35.469759 36.351766 35.244772 36.454730 35.019864 36.561730 34.795108 36.672781 34.570582 36.787899 34.346363 36.907095 34.122528 37.030381 33.899155 37.157767 33.676322 37.289260 33.454106 37.424867 33.232589 37.564593 33.011848 37.708442 32.791962 37.856415 32.573013 38.008513 32.355079 38.164735 32.138241 38.325077 31.922579 38.489536 31.708174 38.658105 31.495106 38.830776 31.283455 39.007542 31.073303 39.188389 30.864730 39.373307 30.657816 39.562281 30.452642 39.755296 30.249289 39.952335 30.047836 40.153377 29.848365 40.358405 29.650954 40.567394 29.455683 40.780321 29.262633 40.997163 29.071882 41.217890 28.883509 41.442476 28.697592 41.670890 28.514210 41.903101 28.333440 42.139076 28.155360 42.378779 27.980046 42.622175 27.807575 42.869226 27.638022 43.119893 27.471463 43.374135 27.307972 43.631910 27.147623 43.893174 26.990489 44.157881 26.836643 44.425985 26.686156 44.697437 26.539101 44.972188 26.395546 45.250188 26.255562 45.531382 26.119217 45.815717 25.986580 46.103139 25.857716 46.393589 25.732692 46.687011 25.611572 46.983344 25.494422 47.282528 25.381303 47.584501 25.272279 47.889200 25.167409 48.196560 25.066753 48.506514 24.970371 48.818997 24.878320 49.133939 24.790656 49.451271 24.707435 49.770923 24.628710 50.092823 24.554534 50.416898 24.484959 50.743074 24.420036 51.071276 24.359812 51.401428 24.304335 51.733453 24.253653 52.067272 24.207809 52.402807 24.166847 52.739978 24.130810 53.078704 24.099737 53.418902 24.073669 53.760491 24.052642 54.103387 24.036694 54.447505 24.025858 54.792760 24.020168 55.139068 24.019656 55.486340 24.024353 55.834491 24.034285 56.183431 24.049481 56.533073 24.069966 56.883328 24.095764 57.234105 24.126897 57.585315 24.163385 57.936866 24.205248 58.288669 24.252502 58.640630 24.305164 58.992658 24.363247 59.344661 24.426763 59.696546 24.495723 60.048219 24.570136 60.399588 24.650009 60.750558 24.735348 61.101037 24.826156 61.450929 24.922434 61.800141 25.024184 62.148579 25.131405 62.496148 25.244091 62.842753 25.362240 63.188300 25.485843 63.532696 25.614894 63.875845 25.749380 64.217652 25.889291 64.558025 26.034614 64.896869 26.185331 65.234090 26.341427 65.569595 26.502883 65.903289 26.669677 66.235081 26.841788 66.564876 27.019191 66.892584 27.201861 67.218111 27.389771 67.541366 27.582890 67.862258 27.781188 68.180697 27.984633 68.496591 28.193190 68.809852 28.406824 69.120390 28.625496 69.428116 28.849167 69.732944 29.077797 70.034785 29.311343 70.333554 29.549760 70.629164 29.793004 70.921531 30.041026 71.210571 30.293777 71.496200 30.551208 71.778335 30.813266 72.056896 31.079897 72.331801 31.351046 72.602971 31.626657 72.870327 31.906671 73.133791 32.191029 73.393287 32.479670 73.648738 32.772532 73.900071 33.069550 74.147212 33.370659 74.390088 33.675793 74.628629 33.984884 74.862764 34.297862 75.092425 34.614656 75.317544 34.935196 75.538055 35.259407 75.753893 35.587216 75.964995 35.918546 76.171298 36.253322 76.372741 36.591464 76.569264 36.932894 76.760810 37.277533 76.947322 37.625297 77.128745 37.976106 77.305024 38.329876 77.476108 38.686523 77.641945 39.045961 77.802487 39.408104 77.957686 39.772865 78.107494 40.140155 78.251869 40.509887 78.390767 40.881970 78.524146 41.256313 78.651966 41.632826 78.774191 42.011416 78.890782 42.391991 79.001705 42.774457 79.106928 43.158720 79.206418 43.544686 79.300146 43.932259 79.388084 44.321344 79.470205 44.711844 79.546485 45.103662 79.616902 45.496702 79.681433 45.890865 79.740060 46.286054 79.792765 46.682170 79.839532 47.079115 79.880348 47.476789 79.915200 47.875094 79.944077 48.273930 79.966971 48.673197 79.983875 49.072795 79.994785 49.472626 79.999696 49.872588" fill="url(#hypocycloid_pattern1_gradient1)" fill-opacity="1.000000"/>
</pattern>
</defs>
<rect x="0.000000" y="0.000000" width="1000.000000" height="1000.000000" fill="url(#hypocycloid_pattern1)" fill-opacity="1.000000" />
</svg>
